<svg height="317" viewBox="0 0 317 317" width="317" xmlns="http://www.w3.org/2000/svg"><g fill="none" fill-rule="nonzero" transform="translate(.380769 .6)"><path d="m193.279076 13.7790323-102.2406879 273.4711467c-4.1004128 10.967694 1.4601421 23.185232 12.4198469 27.288633 10.959705 4.103402 23.168343-1.461206 27.268755-12.4289l102.240688-273.4711469c4.100413-10.9676942-1.460142-23.18523152-12.419847-27.28863342s-23.168342 1.46120646-27.268755 12.42890062z" fill="#6e66ff"/><path d="m281.251891 39.4328654-40.794383 107.7591666c-3.52884 9.546461 1.256608 20.180806 10.688596 23.752474s19.938815-1.271858 23.467655-10.818319l40.794383-107.7591665c3.52884-9.5464609-1.256607-20.1808057-10.688596-23.752474-9.431988-3.5716683-19.938815 1.2718581-23.467655 10.8183189z" fill="#fe585a"/><path d="m41.9554674 163.910519-40.79438232 105.90125c-3.52884004 9.381867 1.25660708 19.832861 10.68859532 23.342949 9.4319882 3.510087 19.9388155-1.24993 23.4676556-10.631797l40.7943823-105.90125c3.5288401-9.381866-1.2566071-19.83286-10.6885953-23.342948-9.4319883-3.510088-19.9388155 1.249929-23.4676556 10.631796z" fill="#96c8eb"/><g fill="#ffb81e"><path d="m257.427778 252.213498-46.860443 19.513185c-8.355199 3.479194-12.310037 13.077803-8.833378 21.439093s13.068276 12.319011 21.423475 8.839817l69.641122-28.999302c3.202156-1.333412 5.9761-3.522588 8.018281-6.327968 6.14832-8.446056 4.290625-20.28077-4.149279-26.433572l-50.037716-36.478161c-7.314584-5.332428-17.563864-3.721252-22.892408 3.598664-5.328544 7.319915-3.718542 17.576667 3.596042 22.909095z"/><path d="m30.3472163 92.123536c-8.3551993 3.4791937-12.3100374 13.077802-8.8333781 21.439092s13.0682758 12.319011 21.4234751 8.839818l69.6411227-28.9993028c3.202155-1.3334114 5.976099-3.522588 8.01828-6.3279676 6.14832-8.4460564 4.290625-20.2807697-4.149279-26.433572l-50.0377162-36.4781608c-7.3145834-5.3324286-17.5638635-3.7212521-22.8924078 3.5986634-5.3285444 7.3199155-3.7185415 17.576667 3.5960419 22.9090957l30.0943044 21.9391484z" transform="matrix(-1 0 0 -1 144.47513 144.683448)"/></g></g></svg>