<svg width="32" height="32" viewBox="0 0 32 32" fill="none" xmlns="http://www.w3.org/2000/svg">
<path d="M23.6156 10.0194C22.7349 8.84083 21.6028 7.87705 20.3032 7.1993C19.0035 6.52154 17.5695 6.14714 16.1071 6.10377C13.8097 6.05735 12.2227 6.75383 11.3248 7.31381C12.5262 6.61084 14.2648 6.21207 15.787 6.23178C19.7026 6.28169 23.908 8.97204 24.5326 13.8212C25.2499 19.3876 21.4068 24.0334 16.0007 24.0476C10.0532 24.0628 6.43574 18.75 7.38135 13.9779C7.39894 13.7439 7.43308 13.5115 7.48351 13.2824C7.60019 12.0594 7.95249 10.8711 8.52064 9.78431C7.83573 10.1419 6.96358 11.2729 6.53319 12.3204C5.90668 13.9188 5.68579 15.6497 5.89058 17.356C5.90542 17.4853 5.91877 17.6143 5.93559 17.7426C6.19207 19.2325 6.78025 20.6443 7.65583 21.8718C8.53142 23.0992 9.6716 24.1102 10.9905 24.8287C12.3095 25.5473 13.7728 25.9545 15.2703 26.0199C16.7679 26.0853 18.2606 25.8071 19.6361 25.2062C21.0117 24.6053 22.2342 23.6975 23.2116 22.5509C24.189 21.4044 24.8959 20.0491 25.279 18.5871C25.6621 17.1251 25.7114 15.5944 25.4233 14.1104C25.1352 12.6263 24.5171 11.2276 23.6156 10.0194Z" fill="url(#paint0_radial)"/>
<path opacity="0.67" d="M23.6156 10.0194C22.7349 8.84083 21.6028 7.87705 20.3032 7.1993C19.0035 6.52154 17.5695 6.14714 16.1071 6.10377C13.8097 6.05735 12.2227 6.75383 11.3248 7.31381C12.5262 6.61084 14.2648 6.21207 15.787 6.23178C19.7026 6.28169 23.908 8.97204 24.5326 13.8212C25.2499 19.3876 21.4068 24.0334 16.0007 24.0476C10.0532 24.0628 6.43574 18.75 7.38135 13.9779C7.39894 13.7439 7.43308 13.5115 7.48351 13.2824C7.60019 12.0594 7.95249 10.8711 8.52064 9.78431C7.83573 10.1419 6.96358 11.2729 6.53319 12.3204C5.90668 13.9188 5.68579 15.6497 5.89058 17.356C5.90542 17.4853 5.91877 17.6143 5.93559 17.7426C6.19207 19.2325 6.78025 20.6443 7.65583 21.8718C8.53142 23.0992 9.6716 24.1102 10.9905 24.8287C12.3095 25.5473 13.7728 25.9545 15.2703 26.0199C16.7679 26.0853 18.2606 25.8071 19.6361 25.2062C21.0117 24.6053 22.2342 23.6975 23.2116 22.5509C24.189 21.4044 24.8959 20.0491 25.279 18.5871C25.6621 17.1251 25.7114 15.5944 25.4233 14.1104C25.1352 12.6263 24.5171 11.2276 23.6156 10.0194Z" fill="url(#paint1_radial)"/>
<path d="M23.6156 10.0194C22.7349 8.84083 21.6028 7.87705 20.3032 7.1993C19.0035 6.52154 17.5695 6.14714 16.1071 6.10377C13.8097 6.05735 12.2227 6.75383 11.3248 7.31381C12.5262 6.61084 14.2648 6.21207 15.787 6.23178C19.7026 6.28169 23.908 8.97204 24.5326 13.8212C25.2499 19.3876 21.4068 24.0334 16.0007 24.0476C10.0532 24.0628 6.43574 18.75 7.38135 13.9779C7.39894 13.7439 7.43308 13.5115 7.48351 13.2824C7.60019 12.0594 7.95249 10.8711 8.52064 9.78431C7.83573 10.1419 6.96358 11.2729 6.53319 12.3204C5.90668 13.9188 5.68579 15.6497 5.89058 17.356C5.90542 17.4853 5.91877 17.6143 5.93559 17.7426C6.19207 19.2325 6.78025 20.6443 7.65583 21.8718C8.53142 23.0992 9.6716 24.1102 10.9905 24.8287C12.3095 25.5473 13.7728 25.9545 15.2703 26.0199C16.7679 26.0853 18.2606 25.8071 19.6361 25.2062C21.0117 24.6053 22.2342 23.6975 23.2116 22.5509C24.189 21.4044 24.8959 20.0491 25.279 18.5871C25.6621 17.1251 25.7114 15.5944 25.4233 14.1104C25.1352 12.6263 24.5171 11.2276 23.6156 10.0194Z" fill="url(#paint2_radial)"/>
<path d="M23.6156 10.0194C22.7349 8.84083 21.6028 7.87705 20.3032 7.1993C19.0035 6.52154 17.5695 6.14714 16.1071 6.10377C13.8097 6.05735 12.2227 6.75383 11.3248 7.31381C12.5262 6.61084 14.2648 6.21207 15.787 6.23178C19.7026 6.28169 23.908 8.97204 24.5326 13.8212C25.2499 19.3876 21.4068 24.0334 16.0007 24.0476C10.0532 24.0628 6.43574 18.75 7.38135 13.9779C7.39894 13.7439 7.43308 13.5115 7.48351 13.2824C7.60019 12.0594 7.95249 10.8711 8.52064 9.78431C7.83573 10.1419 6.96358 11.2729 6.53319 12.3204C5.90668 13.9188 5.68579 15.6497 5.89058 17.356C5.90542 17.4853 5.91877 17.6143 5.93559 17.7426C6.19207 19.2325 6.78025 20.6443 7.65583 21.8718C8.53142 23.0992 9.6716 24.1102 10.9905 24.8287C12.3095 25.5473 13.7728 25.9545 15.2703 26.0199C16.7679 26.0853 18.2606 25.8071 19.6361 25.2062C21.0117 24.6053 22.2342 23.6975 23.2116 22.5509C24.189 21.4044 24.8959 20.0491 25.279 18.5871C25.6621 17.1251 25.7114 15.5944 25.4233 14.1104C25.1352 12.6263 24.5171 11.2276 23.6156 10.0194Z" fill="url(#paint3_radial)"/>
<path d="M23.6156 10.0194C22.7349 8.84083 21.6028 7.87705 20.3032 7.1993C19.0035 6.52154 17.5695 6.14714 16.1071 6.10377C13.8097 6.05735 12.2227 6.75383 11.3248 7.31381C12.5262 6.61084 14.2648 6.21207 15.787 6.23178C19.7026 6.28169 23.908 8.97204 24.5326 13.8212C25.2499 19.3876 21.4068 24.0334 16.0007 24.0476C10.0532 24.0628 6.43574 18.75 7.38135 13.9779C7.39894 13.7439 7.43308 13.5115 7.48351 13.2824C7.60019 12.0594 7.95249 10.8711 8.52064 9.78431C7.83573 10.1419 6.96358 11.2729 6.53319 12.3204C5.90668 13.9188 5.68579 15.6497 5.89058 17.356C5.90542 17.4853 5.91877 17.6143 5.93559 17.7426C6.19207 19.2325 6.78025 20.6443 7.65583 21.8718C8.53142 23.0992 9.6716 24.1102 10.9905 24.8287C12.3095 25.5473 13.7728 25.9545 15.2703 26.0199C16.7679 26.0853 18.2606 25.8071 19.6361 25.2062C21.0117 24.6053 22.2342 23.6975 23.2116 22.5509C24.189 21.4044 24.8959 20.0491 25.279 18.5871C25.6621 17.1251 25.7114 15.5944 25.4233 14.1104C25.1352 12.6263 24.5171 11.2276 23.6156 10.0194Z" fill="url(#paint4_radial)"/>
<path d="M24.533 13.8212C24.6106 14.4206 24.6355 15.0258 24.6072 15.6297C24.9354 15.5798 25.2641 15.5357 25.5934 15.4974C25.4892 13.5136 24.8007 11.6063 23.6161 10.0194C22.7353 8.84083 21.6032 7.87705 20.3036 7.1993C19.0039 6.52154 17.5699 6.14714 16.1075 6.10377C13.8101 6.05735 12.2231 6.75383 11.3252 7.31381C12.5266 6.61084 14.2652 6.21207 15.7874 6.23178C19.703 6.28219 23.9084 8.97129 24.533 13.8212Z" fill="url(#paint5_linear)"/>
<path d="M24.7737 13.5445C24.217 8.47672 19.7372 6.19886 15.7873 6.2318C14.2649 6.24427 12.5265 6.61086 11.3252 7.31383C11.0073 7.50401 10.7118 7.73005 10.4446 7.98761C10.4765 7.96091 10.5717 7.8818 10.7295 7.7725L10.7451 7.76177L10.759 7.75229C11.342 7.35462 11.9843 7.05369 12.6616 6.8609C13.7226 6.56503 14.8223 6.43516 15.9224 6.47585C17.964 6.59886 19.887 7.48486 21.3162 8.96099C22.7453 10.4371 23.5781 12.3975 23.652 14.4596C23.7428 17.7554 21.0692 20.3831 17.9872 20.5353C15.7458 20.6461 13.6339 19.5519 12.6025 17.3628C12.3612 16.8643 12.1973 16.3313 12.1167 15.7824C11.6279 12.451 13.8454 9.60991 15.8788 8.90644C14.7818 7.93969 12.0331 8.00533 9.98724 9.52382C8.51403 10.6173 7.55828 12.2811 7.24167 14.2652C7.01389 15.7876 7.21444 17.344 7.82047 18.757C8.44996 20.2556 9.47863 21.5488 10.7924 22.4934C12.1061 23.4379 13.6535 23.9968 15.2629 24.1081C15.5085 24.127 15.7545 24.1364 16.001 24.1363C22.5464 24.1363 25.3859 19.1236 24.7737 13.5445Z" fill="url(#paint6_radial)"/>
<path d="M24.7737 13.5445C24.217 8.47672 19.7372 6.19886 15.7873 6.2318C14.2649 6.24427 12.5265 6.61086 11.3252 7.31383C11.0073 7.50401 10.7118 7.73005 10.4446 7.98761C10.4765 7.96091 10.5717 7.8818 10.7295 7.7725L10.7451 7.76177L10.759 7.75229C11.342 7.35462 11.9843 7.05369 12.6616 6.8609C13.7226 6.56503 14.8223 6.43516 15.9224 6.47585C17.964 6.59886 19.887 7.48486 21.3162 8.96099C22.7453 10.4371 23.5781 12.3975 23.652 14.4596C23.7428 17.7554 21.0692 20.3831 17.9872 20.5353C15.7458 20.6461 13.6339 19.5519 12.6025 17.3628C12.3612 16.8643 12.1973 16.3313 12.1167 15.7824C11.6279 12.451 13.8454 9.60991 15.8788 8.90644C14.7818 7.93969 12.0331 8.00533 9.98724 9.52382C8.51403 10.6173 7.55828 12.2811 7.24167 14.2652C7.01389 15.7876 7.21444 17.344 7.82047 18.757C8.44996 20.2556 9.47863 21.5488 10.7924 22.4934C12.1061 23.4379 13.6535 23.9968 15.2629 24.1081C15.5085 24.127 15.7545 24.1364 16.001 24.1363C22.5464 24.1363 25.3859 19.1236 24.7737 13.5445Z" fill="url(#paint7_radial)"/>
<path opacity="0.53" d="M24.7737 13.5445C24.217 8.47672 19.7372 6.19886 15.7873 6.2318C14.2649 6.24427 12.5265 6.61086 11.3252 7.31383C11.0073 7.50401 10.7118 7.73005 10.4446 7.98761C10.4765 7.96091 10.5717 7.8818 10.7295 7.7725L10.7451 7.76177L10.759 7.75229C11.342 7.35462 11.9843 7.05369 12.6616 6.8609C13.7226 6.56503 14.8223 6.43516 15.9224 6.47585C17.964 6.59886 19.887 7.48486 21.3162 8.96099C22.7453 10.4371 23.5781 12.3975 23.652 14.4596C23.7428 17.7554 21.0692 20.3831 17.9872 20.5353C15.7458 20.6461 13.6339 19.5519 12.6025 17.3628C12.3612 16.8643 12.1973 16.3313 12.1167 15.7824C11.6279 12.451 13.8454 9.60991 15.8788 8.90644C14.7818 7.93969 12.0331 8.00533 9.98724 9.52382C8.51403 10.6173 7.55828 12.2811 7.24167 14.2652C7.01389 15.7876 7.21444 17.344 7.82047 18.757C8.44996 20.2556 9.47863 21.5488 10.7924 22.4934C12.1061 23.4379 13.6535 23.9968 15.2629 24.1081C15.5085 24.127 15.7545 24.1364 16.001 24.1363C22.5464 24.1363 25.3859 19.1236 24.7737 13.5445Z" fill="url(#paint8_radial)"/>
<path opacity="0.53" d="M24.7737 13.5445C24.217 8.47672 19.7372 6.19886 15.7873 6.2318C14.2649 6.24427 12.5265 6.61086 11.3252 7.31383C11.0073 7.50401 10.7118 7.73005 10.4446 7.98761C10.4765 7.96091 10.5717 7.8818 10.7295 7.7725L10.7451 7.76177L10.759 7.75229C11.342 7.35462 11.9843 7.05369 12.6616 6.8609C13.7226 6.56503 14.8223 6.43516 15.9224 6.47585C17.964 6.59886 19.887 7.48486 21.3162 8.96099C22.7453 10.4371 23.5781 12.3975 23.652 14.4596C23.7428 17.7554 21.0692 20.3831 17.9872 20.5353C15.7458 20.6461 13.6339 19.5519 12.6025 17.3628C12.3612 16.8643 12.1973 16.3313 12.1167 15.7824C11.6279 12.451 13.8454 9.60991 15.8788 8.90644C14.7818 7.93969 12.0331 8.00533 9.98724 9.52382C8.51403 10.6173 7.55828 12.2811 7.24167 14.2652C7.01389 15.7876 7.21444 17.344 7.82047 18.757C8.44996 20.2556 9.47863 21.5488 10.7924 22.4934C12.1061 23.4379 13.6535 23.9968 15.2629 24.1081C15.5085 24.127 15.7545 24.1364 16.001 24.1363C22.5464 24.1363 25.3859 19.1236 24.7737 13.5445Z" fill="url(#paint9_radial)"/>
<path d="M17.9872 20.5354C22.2169 20.2759 24.0275 16.7423 24.1411 14.2356C24.3182 10.319 22.0151 6.09664 15.9223 6.47595C14.8222 6.43551 13.7225 6.56562 12.6615 6.86175C11.9872 7.06272 11.3461 7.36309 10.7589 7.75314L10.745 7.76262L10.7294 7.77335C10.6348 7.83989 10.5422 7.90993 10.4517 7.98347C12.0287 7.09379 13.8509 6.74885 15.6403 7.00125C19.1384 7.46441 22.3366 10.2097 22.3366 13.8321C22.3366 16.6193 20.2017 18.7482 17.7018 18.5952C13.9878 18.3706 13.0516 14.5276 14.9836 12.8671C14.4627 12.7541 13.4837 12.9757 12.802 14.0038C12.1903 14.9271 12.2249 16.352 12.6024 17.3629C13.0729 18.3821 13.8406 19.232 14.8029 19.799C15.7652 20.3659 16.8762 20.6229 17.9872 20.5354Z" fill="url(#paint10_radial)"/>
<path d="M23.6335 10.7744C23.3792 10.0179 22.9674 9.32496 22.4259 8.74209C21.7825 8.06564 21.0197 7.51615 20.1765 7.1218C19.4727 6.77176 18.7305 6.50634 17.9652 6.33099C16.6163 6.03309 15.2203 6.02459 13.8679 6.30603C12.4622 6.60549 11.2262 7.21912 10.4443 7.98622C11.0678 7.63089 11.736 7.36227 12.4308 7.18768C13.781 6.84538 15.1947 6.8511 16.5421 7.20432C17.8895 7.55753 19.1272 8.24689 20.1414 9.20899C20.5525 9.60227 20.9123 10.0467 21.2122 10.5316C22.423 12.5177 22.3085 15.0147 21.3643 16.4872C20.6631 17.5812 19.1612 18.6084 17.7599 18.5964C18.8146 18.6767 19.871 18.4668 20.8167 17.9891C21.7624 17.5113 22.5619 16.7836 23.1299 15.8836C24.1166 14.3304 24.1502 12.3538 23.6335 10.7744Z" fill="url(#paint11_linear)"/>
<path d="M23.6161 10.0191C23.351 9.66906 23.0633 9.3371 22.7548 9.02543C22.5098 8.7641 22.2472 8.52013 21.969 8.29526C22.1291 8.43593 22.2818 8.58503 22.4263 8.74194C22.9678 9.32484 23.3795 10.0177 23.6339 10.7742C24.1506 12.3536 24.1169 14.3303 23.1303 15.8827C22.5824 16.7526 21.8174 17.4618 20.9119 17.939C20.0064 18.4162 18.9925 18.6447 17.9718 18.6015C17.8825 18.6015 17.7925 18.6015 17.7019 18.5948C13.988 18.3702 13.0518 14.5272 14.9841 12.8667C14.4629 12.7536 13.4839 12.9752 12.8022 14.0034C12.1905 14.9267 12.2251 16.3516 12.6026 17.3625C12.3614 16.8639 12.1976 16.3309 12.117 15.7821C11.628 12.4507 13.8455 9.60961 15.879 8.90614C14.782 7.9394 12.0332 8.00504 9.98735 9.52352C8.78409 10.431 7.90791 11.7104 7.49234 13.1669C7.62478 11.985 7.9736 10.8382 8.52106 9.78479C7.83615 10.1424 6.964 11.2733 6.53361 12.3209C5.90722 13.919 5.68634 15.6497 5.891 17.3558C5.90584 17.485 5.91919 17.614 5.93601 17.7423C6.19249 19.2322 6.78066 20.6441 7.65625 21.8715C8.53184 23.0989 9.67202 24.11 10.991 24.8285C12.3099 25.547 13.7732 25.9543 15.2708 26.0196C16.7683 26.085 18.261 25.8068 19.6366 25.2059C21.0121 24.6051 22.2346 23.6972 23.212 22.5507C24.1894 21.4042 24.8963 20.0489 25.2794 18.5868C25.6625 17.1248 25.7119 15.5942 25.4237 14.1101C25.1356 12.6261 24.5176 11.2273 23.6161 10.0191Z" fill="url(#paint12_linear)"/>
<path d="M23.6335 10.7744C23.3792 10.0179 22.9674 9.32496 22.4259 8.74209C21.7825 8.06564 21.0197 7.51615 20.1765 7.1218C19.4727 6.77176 18.7305 6.50634 17.9652 6.33099C16.6163 6.03309 15.2203 6.02459 13.8679 6.30603C12.4622 6.60549 11.2262 7.21912 10.4443 7.98622C11.0678 7.63089 11.736 7.36227 12.4308 7.18768C13.781 6.84538 15.1947 6.8511 16.5421 7.20432C17.8895 7.55753 19.1272 8.24689 20.1414 9.20899C20.5525 9.60227 20.9123 10.0467 21.2122 10.5316C22.423 12.5177 22.3085 15.0147 21.3643 16.4872C20.6631 17.5812 19.1612 18.6084 17.7599 18.5964C18.8146 18.6767 19.871 18.4668 20.8167 17.9891C21.7624 17.5113 22.5619 16.7836 23.1299 15.8836C24.1166 14.3304 24.1502 12.3538 23.6335 10.7744Z" fill="url(#paint13_linear)"/>
<defs>
<radialGradient id="paint0_radial" cx="0" cy="0" r="1" gradientUnits="userSpaceOnUse" gradientTransform="translate(23.5135 10.1903) scale(22.4544 22.6537)">
<stop stop-color="#FFF36E"/>
<stop offset="0.5" stop-color="#FC4055"/>
<stop offset="1" stop-color="#E31587"/>
</radialGradient>
<radialGradient id="paint1_radial" cx="0" cy="0" r="1" gradientUnits="userSpaceOnUse" gradientTransform="translate(7.46001 11.1274) scale(13.2891 13.4071)">
<stop offset="0.001" stop-color="#C60084"/>
<stop offset="1" stop-color="#FC4055" stop-opacity="0"/>
</radialGradient>
<radialGradient id="paint2_radial" cx="0" cy="0" r="1" gradientUnits="userSpaceOnUse" gradientTransform="translate(25.4329 8.90117) scale(26.3672 26.6013)">
<stop stop-color="#FFDE67" stop-opacity="0.6"/>
<stop offset="0.093" stop-color="#FFD966" stop-opacity="0.581"/>
<stop offset="0.203" stop-color="#FFCA65" stop-opacity="0.525"/>
<stop offset="0.321" stop-color="#FEB262" stop-opacity="0.432"/>
<stop offset="0.446" stop-color="#FE8F5E" stop-opacity="0.302"/>
<stop offset="0.573" stop-color="#FD6459" stop-opacity="0.137"/>
<stop offset="0.664" stop-color="#FC4055" stop-opacity="0"/>
</radialGradient>
<radialGradient id="paint3_radial" cx="0" cy="0" r="1" gradientUnits="userSpaceOnUse" gradientTransform="translate(16.2795 17.1823) scale(34.0158 34.3178)">
<stop offset="0.153" stop-color="#810220"/>
<stop offset="0.167" stop-color="#920B27" stop-opacity="0.861"/>
<stop offset="0.216" stop-color="#CB2740" stop-opacity="0.398"/>
<stop offset="0.253" stop-color="#EF394F" stop-opacity="0.11"/>
<stop offset="0.272" stop-color="#FC4055" stop-opacity="0"/>
</radialGradient>
<radialGradient id="paint4_radial" cx="0" cy="0" r="1" gradientUnits="userSpaceOnUse" gradientTransform="translate(13.7053 16.7509) scale(34.0158 34.3178)">
<stop offset="0.113" stop-color="#810220"/>
<stop offset="0.133" stop-color="#920B27" stop-opacity="0.861"/>
<stop offset="0.204" stop-color="#CB2740" stop-opacity="0.398"/>
<stop offset="0.257" stop-color="#EF394F" stop-opacity="0.11"/>
<stop offset="0.284" stop-color="#FC4055" stop-opacity="0"/>
</radialGradient>
<linearGradient id="paint5_linear" x1="17.157" y1="8.04473" x2="23.0616" y2="18.182" gradientUnits="userSpaceOnUse">
<stop stop-color="#FFBD4F"/>
<stop offset="0.508" stop-color="#FF9640" stop-opacity="0"/>
</linearGradient>
<radialGradient id="paint6_radial" cx="0" cy="0" r="1" gradientUnits="userSpaceOnUse" gradientTransform="translate(23.0006 9.1189) scale(21.0789 21.3106)">
<stop stop-color="#FF9640"/>
<stop offset="0.8" stop-color="#FC4055"/>
</radialGradient>
<radialGradient id="paint7_radial" cx="0" cy="0" r="1" gradientUnits="userSpaceOnUse" gradientTransform="translate(23.0006 9.1189) scale(21.0789 21.3106)">
<stop offset="0.084" stop-color="#FFDE67"/>
<stop offset="0.147" stop-color="#FFDC66" stop-opacity="0.968"/>
<stop offset="0.246" stop-color="#FFD562" stop-opacity="0.879"/>
<stop offset="0.369" stop-color="#FFCB5D" stop-opacity="0.734"/>
<stop offset="0.511" stop-color="#FFBC55" stop-opacity="0.533"/>
<stop offset="0.667" stop-color="#FFAA4B" stop-opacity="0.28"/>
<stop offset="0.822" stop-color="#FF9640" stop-opacity="0"/>
</radialGradient>
<radialGradient id="paint8_radial" cx="0" cy="0" r="1" gradientUnits="userSpaceOnUse" gradientTransform="translate(18.1726 15.7473) rotate(75.8486) scale(10.443 10.7936)">
<stop offset="0.363" stop-color="#FC4055"/>
<stop offset="0.443" stop-color="#FD604D" stop-opacity="0.633"/>
<stop offset="0.545" stop-color="#FE8644" stop-opacity="0.181"/>
<stop offset="0.59" stop-color="#FF9640" stop-opacity="0"/>
</radialGradient>
<radialGradient id="paint9_radial" cx="0" cy="0" r="1" gradientUnits="userSpaceOnUse" gradientTransform="translate(16.3916 16.6069) scale(10.3367 10.4286)">
<stop offset="0.216" stop-color="#FC4055" stop-opacity="0.8"/>
<stop offset="0.267" stop-color="#FD5251" stop-opacity="0.633"/>
<stop offset="0.41" stop-color="#FE8345" stop-opacity="0.181"/>
<stop offset="0.474" stop-color="#FF9640" stop-opacity="0"/>
</radialGradient>
<radialGradient id="paint10_radial" cx="0" cy="0" r="1" gradientUnits="userSpaceOnUse" gradientTransform="translate(27.2075 6.71175) scale(35.6277 36.019)">
<stop offset="0.054" stop-color="#FFF36E"/>
<stop offset="0.457" stop-color="#FF9640"/>
<stop offset="0.639" stop-color="#FF9640"/>
</radialGradient>
<linearGradient id="paint11_linear" x1="15.8591" y1="5.93421" x2="21.3157" y2="21.5941" gradientUnits="userSpaceOnUse">
<stop stop-color="#B833E1"/>
<stop offset="0.371" stop-color="#9059FF"/>
<stop offset="0.614" stop-color="#5B6DF8"/>
<stop offset="1" stop-color="#0090ED"/>
</linearGradient>
<linearGradient id="paint12_linear" x1="20.4272" y1="7.86878" x2="10.1767" y2="25.4674" gradientUnits="userSpaceOnUse">
<stop stop-color="#FFF36E" stop-opacity="0.8"/>
<stop offset="0.094" stop-color="#FFF36E" stop-opacity="0.699"/>
<stop offset="0.752" stop-color="#FFF36E" stop-opacity="0"/>
</linearGradient>
<linearGradient id="paint13_linear" x1="12.6744" y1="6.18226" x2="22.7459" y2="16.1651" gradientUnits="userSpaceOnUse">
<stop offset="0.805" stop-color="#722291" stop-opacity="0"/>
<stop offset="1" stop-color="#592ACB" stop-opacity="0.5"/>
</linearGradient>
</defs>
</svg>
