<svg width="32" height="32" viewBox="0 0 32 32" fill="none" xmlns="http://www.w3.org/2000/svg">
<g clip-path="url(#clip0)">
<path d="M27.0001 15.8256H15.2644C14.1704 15.8256 13.2753 16.5471 13.2753 17.5572C13.2753 18.5674 14.1704 19.2408 15.2644 19.2408H21.182L19.5907 21.8383C19.4913 22.0307 19.3421 22.0788 19.1432 22.0788H13.3748C13.1261 22.0788 13.0267 22.0307 12.9272 21.8383L9.99327 16.6433C9.89381 16.499 9.89381 16.3547 9.99327 16.1623L12.9272 11.1117C13.0267 10.9193 13.1758 10.8712 13.3748 10.8712H19.1432C19.3918 10.8712 19.4913 10.9193 19.6404 11.1117L21.4306 13.9977C21.5301 14.1421 21.5798 14.1902 21.7787 14.1902H25.8564L21.9279 7.79269C21.8285 7.64838 21.729 7.60028 21.5301 7.60028H10.9878C10.7392 7.60028 10.6397 7.69648 10.5403 7.88889L5.9156 16.1142C5.76642 16.3547 5.76642 16.499 5.9156 16.7395L10.7889 25.2053C10.8884 25.3977 11.0375 25.4459 11.2862 25.4459H21.3809C21.6295 25.4459 21.7787 25.3977 21.8782 25.1572L27.0001 15.8256V15.8256Z" fill="#00AA4E"/>
</g>
<defs>
<clipPath id="clip0">
<rect width="21" height="19" fill="white" transform="translate(6 7)"/>
</clipPath>
</defs>
</svg>
