<svg width="32" height="32" viewBox="0 0 32 32" fill="none" xmlns="http://www.w3.org/2000/svg">
<g clip-path="url(#clip0)">
<path d="M9.19353 14.0295C8.90913 14.0741 8.61927 14.0749 8.33459 14.032C8.05599 13.9827 7.76731 13.8316 7.60971 13.6032C6.99949 13.5786 6.44192 13.0958 6.34744 12.5097C5.90863 12.2922 5.52322 11.8249 5.29093 11.4027C5.18626 11.1957 5.11954 10.9726 5.09375 10.7433C5.41529 10.3936 5.91049 10.0833 6.46433 10.5095C6.4917 10.4482 6.53144 10.3927 6.58121 10.3465C6.63097 10.3002 6.68977 10.2641 6.75413 10.2402C6.88318 10.1932 7.02043 10.171 7.15821 10.175C7.33971 10.175 7.55631 10.2283 7.68104 10.3562C8.23039 9.96511 9.04677 9.82701 9.71264 9.96837" fill="#3F3A3B"/>
<path d="M23.3267 14.0295C23.6111 14.0741 23.901 14.0749 24.1857 14.032C24.4643 13.9827 24.7529 13.8316 24.9105 13.6032C25.5208 13.5786 26.0783 13.0958 26.1728 12.5097C26.6116 12.2922 26.997 11.8249 27.2293 11.4027C27.334 11.1957 27.4007 10.9726 27.4265 10.7433C27.105 10.3936 26.6098 10.0833 26.0559 10.5095C26.0286 10.4482 25.9888 10.3927 25.939 10.3465C25.8893 10.3002 25.8305 10.2641 25.7661 10.2402C25.6371 10.1932 25.4998 10.171 25.362 10.175C25.1805 10.175 24.9639 10.2283 24.8392 10.3562C24.2899 9.96511 23.4735 9.82701 22.8076 9.96837" fill="#3F3A3B"/>
<path d="M16.2604 6.81037C15.1258 6.79297 13.9487 6.8448 12.8619 7.19096C11.7009 7.56105 10.7941 8.18341 10.148 9.17259C9.83024 9.65902 9.47583 10.4195 9.34997 10.9849C9.10798 12.0752 9.02694 13.3269 9.26445 14.4222C9.62036 16.0635 11.4865 16.8838 13.0442 17.102C14.096 17.2485 15.1561 17.3318 16.2185 17.3514C17.3146 17.3713 18.3898 17.2539 19.4754 17.102C21.0331 16.8845 22.8989 16.0635 23.2552 14.4222C23.4927 13.3269 23.4117 12.0752 23.1697 10.9849C23.0442 10.4202 22.6894 9.65975 22.3716 9.17259C21.7255 8.18341 20.8188 7.56105 19.6577 7.19096C18.5709 6.8448 17.3942 6.79225 16.2593 6.81037" fill="#F48BA9"/>
<path d="M19.2625 15.8671C20.2238 15.5887 21.1671 15.0026 21.7702 14.2233C21.7844 12.8097 21.5305 11.3196 21.16 9.95125C20.6394 9.7532 20.1087 9.5814 19.5698 9.43654C18.2599 9.07769 16.8992 8.9252 15.5395 8.9849C14.1006 9.05269 12.6942 9.44234 11.3598 9.95125C10.989 11.3196 10.7354 12.8086 10.7496 14.2233C11.3516 15.0023 12.2961 15.5887 13.2573 15.8671C15.1485 16.4148 17.3739 16.4141 19.2625 15.8671Z" fill="#FFE6E6"/>
<path d="M17.2933 6.81984C17.2287 6.31238 16.8731 5.85204 16.2599 5.83356C15.6467 5.85204 15.2912 6.31166 15.2266 6.81984" fill="#3F3A3B"/>
<path d="M15.0676 14.4418C16.2255 14.4404 17.3815 14.3839 18.5355 14.2722L18.5377 13.5589C18.5423 13.5224 18.533 13.4855 18.5116 13.4552C18.4795 13.419 18.4234 13.4226 18.3756 13.4273C16.9709 13.5618 15.56 13.6256 14.1485 13.6183C14.1363 13.6146 14.1233 13.614 14.1107 13.6167C14.0982 13.6194 14.0867 13.6253 14.0772 13.6337C14.0678 13.6421 14.0608 13.6528 14.057 13.6647C14.0532 13.6765 14.0527 13.6892 14.0555 13.7013V14.2592C14.0536 14.2738 14.0547 14.2887 14.0587 14.303C14.0627 14.3172 14.0697 14.3305 14.079 14.3422C14.2224 14.4745 14.8879 14.4418 15.0676 14.4418Z" fill="white"/>
<path d="M16.2468 3.95511C16.4025 3.95511 16.5288 3.83258 16.5288 3.68144C16.5288 3.5303 16.4025 3.40778 16.2468 3.40778C16.0911 3.40778 15.9648 3.5303 15.9648 3.68144C15.9648 3.83258 16.0911 3.95511 16.2468 3.95511Z" fill="#DCC6EA"/>
<path d="M12.1954 16.9871C12.1954 16.9871 10.3766 17.7817 10.1664 17.927C9.95613 18.0724 10.2411 17.9941 10.4607 18.0901C10.6803 18.1862 10.8823 18.284 10.9383 18.5131C10.9943 18.7422 10.9596 18.6973 10.9596 18.6973L12.1453 18.1793L12.3264 16.9871H12.1954Z" fill="#F48BA9"/>
<path d="M9.91504 19.2436C9.91504 19.2436 10.2952 19.3161 10.5368 19.1867C10.7785 19.0573 10.96 18.7825 10.96 18.7825L11.3558 19.0493L11.9485 19.4814C11.9485 19.4814 11.5299 19.498 11.4257 19.7782C11.3648 19.9336 11.3233 20.0954 11.302 20.2603L10.5088 19.8076L9.91504 19.2436Z" fill="#F48BA9"/>
<path d="M10.017 18.0594C9.88553 18.1055 9.76788 18.1824 9.6745 18.2834C9.61699 18.3424 9.54118 18.4004 9.51242 18.4776C9.44184 18.6687 9.52811 18.8658 9.60915 19.038C9.66442 19.1555 9.73425 19.1968 9.86608 19.2193C10.0233 19.2454 10.2022 19.2791 10.3602 19.2595C10.6511 19.2232 10.889 18.9757 10.9252 18.6984C10.9465 18.5353 10.8595 18.2812 10.7034 18.1978C10.4928 18.0892 10.2547 18.0412 10.017 18.0594V18.0594Z" fill="#3F3A3B"/>
<path d="M12.3268 16.9875L11.9481 19.4827C11.9481 19.4827 11.7681 20.6104 11.8047 20.8873C11.8413 21.1642 12.0064 22.3669 12.4474 22.6504C12.8885 22.9338 13.4812 23.3662 14.9018 23.4438C16.3224 23.5214 17.2758 23.5402 18.3607 23.3072C19.4456 23.0741 19.9587 22.8878 20.2257 22.4122C20.4928 21.9367 20.6556 21.8022 20.6739 21.2755C20.6922 20.7488 20.6784 20.3806 20.6784 20.3806L20.5114 19.0757L20.1903 16.9871C20.1903 16.9871 17.6915 17.4319 16.26 17.3775C14.8286 17.3231 12.3268 16.9875 12.3268 16.9875Z" fill="#F48BA9"/>
<path d="M20.2773 17.0047C20.2773 17.0047 21.5471 17.5397 21.9934 17.7481C22.2497 17.8654 22.4945 18.0049 22.725 18.165C22.725 18.165 22.2021 17.9692 21.9758 18.1146C21.8365 18.2062 21.7145 18.3203 21.6151 18.452L21.5254 18.6963L20.3741 18.1784L20.2773 17.0047Z" fill="#F48BA9"/>
<path d="M20.6064 19.4428L21.5027 18.8063C21.5027 18.8063 21.7873 19.155 22.0345 19.205C22.2818 19.255 22.6477 19.2235 22.6477 19.2235L22.334 19.558L21.2596 20.3102L21.1382 19.8843L20.8488 19.558L20.6064 19.4428Z" fill="#F48BA9"/>
<path d="M22.3036 18.1018C22.0941 18.1018 21.8341 18.1196 21.681 18.2769C21.5574 18.4037 21.5275 18.6665 21.5753 18.8282C21.6067 18.9344 21.6332 19.0167 21.7307 19.0819C21.8272 19.1466 21.9384 19.1878 22.0548 19.2019C22.202 19.2186 22.3469 19.2407 22.4963 19.2305C22.5971 19.2237 22.6901 19.2146 22.7767 19.1613C22.8832 19.0957 22.9179 19.0105 22.9571 18.8989C23.0113 18.7441 23.0381 18.5727 22.9571 18.4248C22.8686 18.2617 22.6322 18.1613 22.4653 18.096" fill="#3F3A3B"/>
<path d="M13.0723 23.0889C13.0723 23.0889 13.0999 23.8041 13.1133 23.9016C13.1176 23.9527 13.1335 24.0022 13.16 24.0466C13.16 24.0466 14.8716 24.384 16.5275 24.334C18.1834 24.284 18.3574 24.189 18.3574 24.189L19.4154 23.9618C19.4154 23.9618 19.4774 23.5442 19.4729 23.4384C19.4684 23.3325 19.3609 23.0889 19.3609 23.0889C18.5262 23.3613 17.6522 23.5031 16.7717 23.509C15.3261 23.5148 14.0627 23.3456 13.7576 23.2731C13.4524 23.2006 13.0723 23.0889 13.0723 23.0889Z" fill="#F48BA9"/>
<path d="M13.2979 24.0441C13.2979 24.0441 13.3468 24.9786 13.6026 25.3632C13.8584 25.7477 14.2748 26.3679 14.9097 26.5611C15.5446 26.7543 15.6626 26.7884 16.1107 26.8029C16.5589 26.8174 17.3685 26.7449 17.919 26.3168C18.4695 25.8887 18.6416 25.6071 18.6416 25.6071C18.6416 25.6071 18.9975 25.0953 19.0151 24.8097C19.0326 24.524 19.1185 24.0445 19.1185 24.0445C19.1185 24.0445 17.6807 24.4222 16.0812 24.337C14.4817 24.2518 13.6414 24.1308 13.6414 24.1308L13.2979 24.0441Z" fill="#3F3A3B"/>
<path d="M11.7783 19.5311C11.5788 19.667 11.3428 19.7848 11.3301 20.0545C11.3167 20.3394 11.3439 20.6181 11.5113 20.8573C11.5792 20.9545 11.67 21.0386 11.7928 21.0538C11.8459 20.9965 11.8302 20.8693 11.8343 20.7935C11.8414 20.6428 11.841 20.4891 11.8447 20.339C12.1771 20.322 12.5226 20.277 12.8325 20.173C12.8426 20.0204 12.8034 19.8642 12.7952 19.7116C12.7907 19.6275 12.8056 19.5771 12.7295 19.5394C12.6219 19.4861 12.3934 19.4818 12.2768 19.472C12.1603 19.4622 12.0528 19.4912 11.9366 19.4952" fill="#3F3A3B"/>
<path d="M20.723 19.5025C20.5736 19.4383 20.3376 19.4753 20.1718 19.4753C20.044 19.4753 19.8454 19.4804 19.7423 19.5681C19.6635 19.6352 19.712 19.7207 19.724 19.8142C19.7378 19.923 19.7318 20.0625 19.7819 20.1637C19.8073 20.2151 19.7744 20.2075 19.833 20.2274C19.8853 20.2452 20.0052 20.2184 20.065 20.2184C20.2254 20.2192 20.3855 20.2335 20.5434 20.2612C20.7181 20.2909 20.6883 20.4301 20.7159 20.5874C20.7375 20.7106 20.7002 20.9274 20.7712 21.0303C20.8925 20.9216 21.0408 20.8128 21.1151 20.6653C21.1924 20.5116 21.2059 20.3275 21.1991 20.1579C21.1879 19.8864 20.9964 19.6348 20.723 19.5025Z" fill="#3F3A3B"/>
<path d="M14.0473 18.1349C13.8606 18.0218 13.6814 18.215 13.7202 18.3977C13.7291 18.4313 13.746 18.4623 13.7695 18.4884C13.793 18.5144 13.8226 18.5347 13.8557 18.5477C13.8888 18.5606 13.9246 18.5657 13.9602 18.5627C13.9957 18.5597 14.0301 18.5486 14.0604 18.5304C14.1986 18.4376 14.1527 18.2201 14.0473 18.1349Z" fill="#FFE6E6"/>
<path d="M14.8506 18.1532C14.8656 18.085 14.6464 18.1601 14.6075 18.2076C14.5437 18.2855 14.5422 18.4446 14.6116 18.5124C14.7154 18.6139 14.9294 18.5885 15.0008 18.4609C15.0654 18.3435 15.0187 18.1945 14.8506 18.1532Z" fill="#FFE6E6"/>
<path d="M17.8006 18.1621C17.7558 18.0338 17.4059 18.1708 17.4735 18.3488C17.5172 18.4634 17.6707 18.5217 17.7868 18.4891C17.9724 18.4358 17.9112 18.2655 17.8006 18.1621Z" fill="#FFE6E6"/>
<path d="M18.6128 18.0987C18.4459 18.0827 18.1863 18.2799 18.3649 18.4409C18.4395 18.5083 18.6102 18.5028 18.6782 18.4343C18.7581 18.3542 18.7424 18.1038 18.6128 18.0987Z" fill="#FFE6E6"/>
<path d="M13.0829 18.8063C13.0829 18.8063 13.0108 20.0075 12.9734 20.3395C12.9361 20.6715 13.0014 21.4139 13.0014 21.4139C13.0014 21.4139 14.766 21.8228 15.9331 21.7865C17.1001 21.7503 18.4072 21.6843 18.8367 21.5904C19.2661 21.4965 19.5485 21.4139 19.5485 21.4139L19.4913 19.736L19.4342 18.8063C19.4342 18.8063 15.2889 18.8505 15.1955 18.8324C15.1021 18.8142 13.0829 18.8063 13.0829 18.8063Z" fill="#3F3A3B"/>
<path d="M14.392 21.3009C14.9973 21.3009 15.4881 20.8246 15.4881 20.2371C15.4881 19.6495 14.9973 19.1732 14.392 19.1732C13.7866 19.1732 13.2959 19.6495 13.2959 20.2371C13.2959 20.8246 13.7866 21.3009 14.392 21.3009Z" fill="white"/>
<path d="M18.1527 21.3009C18.7581 21.3009 19.2488 20.8246 19.2488 20.2371C19.2488 19.6495 18.7581 19.1732 18.1527 19.1732C17.5474 19.1732 17.0566 19.6495 17.0566 20.2371C17.0566 20.8246 17.5474 21.3009 18.1527 21.3009Z" fill="white"/>
<path opacity="0.2" d="M15.5254 6.15213C15.6449 6.06333 16.5188 5.45293 16.4429 5.97887C16.0138 6.0916 15.8869 6.38665 16.1901 6.70381C15.8633 6.72266 15.4731 6.8488 15.1553 6.80095C15.2119 6.55967 15.3308 6.33629 15.5007 6.15177" fill="black"/>
<path opacity="0.2" d="M16.5709 6.82841C16.0436 7.05749 14.8691 7.89697 15.0271 8.58059C15.0644 8.74116 15.2179 8.93472 15.3415 9.0518C15.2877 9.00069 14.4123 9.38056 14.2876 9.42695C13.8805 9.57811 13.463 9.71367 13.0843 9.92716C12.5215 10.2443 11.9173 10.5187 11.71 11.1596C11.589 11.5336 11.471 11.9255 11.4665 12.3166C11.4621 12.7077 11.3209 13.2278 11.4972 13.5758C12.017 14.6038 13.0567 15.3345 14.1562 15.697C14.6923 15.8676 15.2419 15.9959 15.7994 16.0805C16.0933 16.1265 16.46 16.0765 16.5694 16.3918C16.5183 16.2443 15.9118 16.6818 15.9379 16.9268C15.9693 17.2193 16.3031 17.3763 16.5698 17.4412C16.2811 17.6007 15.9387 17.721 15.725 17.9976C15.6037 18.1545 15.2343 18.7225 15.3228 18.9037C15.0988 19.0451 14.7839 19.0904 14.5561 19.1455C14.7488 19.193 14.8631 19.2872 14.9953 19.4184C14.7556 19.4206 14.5281 19.3296 14.3067 19.475C14.4624 19.4811 14.6143 19.5235 14.7496 19.5986C14.5726 19.653 14.0957 19.5946 14.0456 19.8523C14.1423 19.8679 14.2062 19.7914 14.2932 19.7719C14.3552 19.7636 14.418 19.7636 14.4799 19.7719C14.2185 19.8965 14.0023 20.0317 14.08 20.3616C14.1412 20.6222 14.3578 20.7987 14.6267 20.6407C14.4811 20.7378 14.3384 20.7389 14.1689 20.7204C14.0594 20.7085 13.8824 20.6592 13.9448 20.8361C14.0479 21.1235 14.6125 21.084 14.8183 20.9575C14.7294 21.08 14.5643 21.0989 14.4426 21.1706C14.4863 21.3218 14.8907 21.196 14.9766 21.1344C14.8777 21.2029 14.1498 21.4555 14.6252 21.6237C14.7701 21.6748 14.9281 21.7002 15.0734 21.7491C15.4928 21.8894 15.967 21.7723 16.3995 21.7357C16.6818 21.7118 16.9574 21.6995 17.2428 21.6944C16.9948 21.7864 16.7615 21.9118 16.5496 22.067C16.2658 22.2743 15.8315 22.6408 15.8076 22.9993C15.7859 23.3212 15.945 23.5684 16.3084 23.5749C15.7034 23.5626 15.6866 24.1063 16.0981 24.3238C16.1709 24.572 16.5903 24.422 16.7935 24.4742C16.5011 24.6692 15.9312 24.5445 15.6623 24.7816C15.2627 25.1342 16.0092 25.4793 16.1963 25.6721C16.0907 25.6834 15.6933 25.7222 15.6511 25.8331C15.5869 26.0016 15.9499 26.1593 16.0746 26.1956C16.5227 26.33 16.9593 26.1629 17.3847 26.1089C17.2129 26.2079 16.3614 26.4457 16.7181 26.7563C15.9932 27.1003 14.9255 26.5211 14.2951 26.2072C13.5422 25.8316 13.3017 24.7855 13.2561 24.0349C12.8352 24.0265 13.1721 23.2802 13.0608 23.054C12.9981 22.9268 12.8252 22.9322 12.6874 22.8532C12.526 22.7611 12.4566 22.6589 12.34 22.5107C12.169 22.2932 11.9785 22.0572 11.9124 21.7876C11.8512 21.5378 11.8564 21.2776 11.831 21.0235C11.812 20.8339 11.6719 20.5109 11.7911 20.3348C11.9468 20.1039 12.4681 20.3311 12.7128 20.2536C12.9062 20.1923 12.833 20.0506 12.8431 19.8639C12.8547 19.6464 12.8173 19.6102 12.5817 19.5326C12.4039 19.475 12.1365 19.4174 11.9494 19.4583C11.9296 19.1578 11.9632 18.8936 12.0069 18.5953C12.0334 18.414 12.0816 18.2386 12.1055 18.0606C12.1559 17.709 12.3699 17.2994 12.3359 16.9493C12.0461 16.8532 11.7384 16.8203 11.4565 16.7151C11.3131 16.6573 11.1767 16.5844 11.0498 16.4977C10.6647 16.2534 10.3215 16.1649 10.0287 15.7821C9.86068 15.5625 9.67919 15.3787 9.54325 15.1333C9.4556 14.9815 9.38594 14.8205 9.33561 14.6534C9.12498 13.9234 9.12535 13.114 9.17726 12.3637C9.23067 11.588 9.38304 10.8185 9.7311 10.1135C10.0478 9.47226 10.3212 8.71289 10.9396 8.26488C11.1304 8.12677 11.3347 8.02202 11.5181 7.87341C11.7097 7.71827 11.8448 7.55335 12.0753 7.45294C12.4469 7.29128 12.8737 7.11005 13.2812 7.07235C13.8077 7.02378 14.2973 6.85052 14.8321 6.85088C15.4091 6.85088 15.9782 6.79651 16.5605 6.79651" fill="black"/>
<path opacity="0.2" d="M9.33248 10.7314C9.2365 10.7949 9.25219 10.8884 9.21634 10.9852C9.16555 11.1215 9.08189 11.2487 9.02401 11.3839C8.90134 11.6655 8.74664 11.933 8.56279 12.1813C8.47092 12.3082 8.22668 12.6939 8.01605 12.6163C7.7987 12.5358 7.74642 11.9124 7.72551 11.7199C7.70049 11.4876 7.70235 11.2585 7.6848 11.0232C7.60264 11.2574 7.37035 12.5982 6.94723 12.36C6.65369 12.1947 6.68581 11.638 6.62942 11.3632C6.58759 11.1541 6.56294 10.9029 6.45203 10.7159C6.29891 10.8569 6.3609 11.3955 6.34373 11.5988C6.3202 11.8729 6.27986 11.7931 6.04795 11.6753C5.78205 11.5405 5.60802 11.3255 5.46872 11.0627C5.37909 10.8942 5.41868 10.7003 5.4086 10.519C5.3298 10.5212 5.14344 10.6412 5.09863 10.7191C5.02394 10.8514 5.11095 11.0174 5.15091 11.1465C5.2256 11.3868 5.25212 11.5162 5.42988 11.6938C5.5647 11.8283 5.65657 11.9446 5.82014 12.0461C5.96385 12.1406 6.10107 12.244 6.23094 12.3557C6.41767 12.5079 6.32431 12.5036 6.36314 12.7294C6.41319 13.0194 6.71307 13.2655 6.95582 13.4072C7.16346 13.5283 7.39089 13.5652 7.59704 13.6504C7.81775 13.7414 7.98431 13.9563 8.23191 14.0154C8.53016 14.0812 8.83548 14.1118 9.14127 14.1068C9.17488 13.541 9.12633 12.9686 9.12447 12.4032C9.12741 12.1252 9.15062 11.8479 9.19393 11.5731C9.22045 11.3864 9.30783 11.1918 9.31119 11.0066" fill="black"/>
<path opacity="0.2" d="M14.5986 13.6496C14.7708 13.7305 15.1532 13.6496 15.3642 13.6496H15.9195C15.7223 13.6605 15.5166 13.7109 15.3246 13.7584C15.1831 13.7946 14.8619 13.8174 14.7573 13.9124C14.5202 14.127 14.9653 14.3916 15.176 14.4333C15.0232 14.4909 14.2222 14.5319 14.0888 14.376C14.0276 14.3035 14.0336 13.9146 14.0373 13.812C14.0437 13.6464 14.0747 13.5499 14.2614 13.5771" fill="black"/>
<path opacity="0.2" d="M17.959 13.558C18.1831 13.6304 18.2731 13.6091 18.2764 13.8893C18.279 14.1133 18.1846 14.2332 18.015 14.3699C18.1786 14.3913 18.3776 14.3619 18.5334 14.3336C18.5483 14.0603 18.5677 13.7798 18.5517 13.5058C18.4419 13.4604 18.2873 13.4855 17.959 13.558Z" fill="black"/>
<path opacity="0.2" d="M12.7314 11.1301C12.5719 11.1663 12.4599 11.2515 12.2862 11.2413C12.2985 11.3167 12.3643 11.3711 12.4121 11.4345C12.3422 11.4269 12.309 11.4545 12.2627 11.4918C12.5331 11.6995 12.2963 12.2313 12.3811 12.5256C12.4789 12.8645 13.0287 12.9544 13.1844 12.6024C13.2523 12.4495 13.1933 12.4698 13.116 12.3153C12.9782 12.0406 12.9215 11.6883 12.9372 11.3838" fill="black"/>
<path opacity="0.2" d="M19.4909 11.2021C19.2253 11.4801 19.2627 11.9934 19.2855 12.362C19.3079 12.7245 19.8057 13.0797 20.0697 12.6831C20.1784 12.5193 20.0794 12.4512 20.0216 12.2986C19.9002 11.9799 20.0525 11.5214 19.7904 11.2565" fill="black"/>
<path opacity="0.2" d="M23.2248 10.7673C23.2166 11.078 23.4926 11.3288 23.5702 11.6184C23.6371 11.8682 23.6931 12.0896 23.8597 12.3039C23.9646 12.4387 24.1849 12.7134 24.3825 12.6888C24.6402 12.6569 24.7212 12.2219 24.7754 12.0284C24.8501 11.7569 24.8501 11.4742 24.9094 11.2077C24.964 11.4321 25.0667 12.3517 25.4524 12.2328C25.8259 12.1172 25.9349 11.2705 26.1146 10.9682C26.1146 11.3132 26.3215 11.6043 26.6912 11.3991C27.0027 11.2266 27.1083 10.8333 27.4605 10.7148C27.5274 11.1233 27.1027 11.5593 26.869 11.8511C26.6919 12.0722 26.4552 12.2567 26.2684 12.4347C26.2031 12.4967 26.1829 12.5797 26.1273 12.671C25.9088 13.0335 25.7348 13.3688 25.3281 13.5772C25.2052 13.6403 25.0514 13.5935 24.9617 13.6341C24.8351 13.6914 24.7851 13.8386 24.6536 13.9023C24.5016 13.9687 24.3404 14.0133 24.1752 14.035C23.937 14.0713 23.4679 14.2431 23.2614 14.0684C23.4167 13.8581 23.3712 13.5942 23.3734 13.3456C23.3764 13.0679 23.3977 12.7983 23.3783 12.5202C23.3435 12.0095 23.3062 11.4415 23.2248 10.7673Z" fill="black"/>
<path opacity="0.2" d="M23.2998 14.1933C23.0821 14.7689 22.6086 15.2691 22.1795 15.6972C21.6245 16.2514 20.8556 16.673 20.1045 16.9296C19.6751 17.0767 19.2056 17.1862 18.7676 17.2921C19.3431 17.4341 20.1214 17.0677 20.3114 17.7857C20.3114 17.5229 20.2618 17.2667 20.2771 17.0043C20.4956 17.0064 20.6729 16.8636 20.8686 16.785C21.0729 16.7027 21.2727 16.6273 21.4714 16.5294C21.8124 16.3612 22.1063 16.1894 22.3856 15.9317C22.889 15.4699 23.0406 14.9418 23.2998 14.1933Z" fill="black"/>
<path opacity="0.2" d="M20.3682 18.3065C20.3447 18.5602 20.4362 18.8223 20.4429 19.0677C20.4478 19.2547 20.354 19.3294 20.2207 19.4436C20.3256 19.4519 20.5075 19.494 20.5699 19.4258C20.6756 19.3098 20.5251 18.7596 20.4803 18.6317" fill="black"/>
<path opacity="0.2" d="M20.2744 17.5822C20.4279 17.8323 20.9702 17.9469 21.2383 18.0534C21.3739 18.1074 21.4997 18.173 21.6469 18.1803C21.7839 18.1872 21.9333 18.1288 22.0603 18.1803C21.9482 18.2097 21.9736 18.3637 21.9736 18.4703C21.9736 18.6443 21.9673 18.7682 22.1604 18.8422C22.3239 18.9052 22.6503 18.9027 22.7952 18.8008C22.9174 18.716 22.8789 18.6134 22.9685 18.5109C23.0432 18.712 23.0488 18.965 22.8438 19.0908C22.7661 19.1383 22.6907 19.1916 22.5988 19.2097C22.4653 19.2318 22.3295 19.2387 22.1943 19.2304C22.0718 19.2246 21.9621 19.2184 21.8534 19.284C21.726 19.3612 21.6293 19.4834 21.5139 19.574C21.3985 19.6646 21.248 19.7288 21.1326 19.8223C21.1812 19.5457 20.7397 19.5265 20.5724 19.4555C20.9309 19.2623 21.3645 18.9592 21.6088 18.6305C21.31 18.5373 21.0049 18.496 20.7125 18.371C20.6072 18.326 20.3831 18.2542 20.3312 18.1382C20.2677 18.003 20.3756 17.841 20.2744 17.5822Z" fill="black"/>
<path opacity="0.2" d="M19.752 19.6838C19.9197 20.0768 20.6274 20.0862 20.9624 20.2852C20.9885 20.4403 21.176 20.594 21.1293 20.7303C21.0804 20.8735 20.8429 21.0598 20.6872 21.0402C20.8246 20.809 20.7548 20.4168 20.5172 20.3367C20.2797 20.2565 19.9701 20.2323 19.7173 20.2069C19.708 20.0652 19.6426 19.5715 19.752 19.6838Z" fill="black"/>
<path opacity="0.2" d="M19.92 20.2277C20.0373 20.331 20.239 20.3205 20.3588 20.427C20.4787 20.5336 20.4709 20.6695 20.4843 20.8076C20.5217 21.1556 20.4563 21.5068 20.4843 21.8588C20.7211 21.4216 20.7457 20.7685 20.72 20.2683C20.5706 20.2516 20.4212 20.248 20.2752 20.2262C20.2498 20.2211 19.8969 20.2074 19.92 20.2277Z" fill="black"/>
<path opacity="0.2" d="M17.3994 23.5078C17.8401 23.5078 18.2808 23.5129 18.7166 23.4882C18.9646 23.4741 19.2768 23.3693 19.5244 23.452C19.5472 23.3121 19.5154 23.1457 19.5068 23.0036C19.254 22.9623 18.9186 23.174 18.6777 23.2363C18.385 23.3124 18.0518 23.3519 17.7729 23.4357" fill="black"/>
<path opacity="0.2" d="M14.3348 26.9641C14.1571 26.9806 13.9782 26.9779 13.8011 26.9561C13.676 26.9387 13.465 26.889 13.3496 26.9376C13.4097 27.2254 14.3643 27.1845 14.5984 27.2058C14.9801 27.2421 15.3409 27.1895 15.7188 27.1333C16.1957 27.0609 16.679 27.1156 17.1592 27.1156C17.6544 27.1156 18.1522 27.0003 18.609 26.8292C18.2243 26.7894 17.8217 26.8865 17.4289 26.8488C17.0927 26.8165 16.7193 26.7571 16.3832 26.7712C16.0572 26.785 15.7483 26.8622 15.4215 26.8619C15.0563 26.8615 14.694 26.9362 14.3348 26.9641Z" fill="black"/>
<path opacity="0.2" d="M11.6857 17.1473C11.4082 17.2723 11.133 17.4275 10.8641 17.5699C10.7147 17.6493 10.559 17.72 10.4048 17.7921C10.3364 17.8244 10.2737 17.8671 10.2053 17.9009C10.1971 17.9048 10.022 17.9842 10.0463 18.0005C10.261 18.1455 10.5885 18.0564 10.8062 18.222C10.9605 18.3394 10.975 18.4942 11.018 18.6682C11.2652 18.6914 11.6499 18.4717 11.8739 18.3674C12.0024 18.3075 12.095 18.2666 12.1537 18.1542C12.2175 18.0317 12.191 17.874 12.2347 17.7435C12.2743 17.6301 12.315 17.6047 12.3221 17.4659C12.3303 17.3042 12.3859 17.1476 12.3766 16.9878C12.2089 16.994 11.8299 17.0824 11.6857 17.1473Z" fill="black"/>
<path opacity="0.2" d="M10.5835 18.1797C10.6925 18.2159 10.824 18.3736 10.8232 18.4852C10.5939 18.5577 10.2955 18.4551 10.3594 18.823C10.4109 19.1217 10.8143 19.1355 10.8822 18.8568C10.5954 19.1917 9.91833 19.4519 9.60986 19.009C9.24089 18.4794 9.81414 18.1391 10.3019 18.0528" fill="black"/>
<path opacity="0.2" d="M10.8076 19.0861C10.9196 19.2529 11.0317 19.3942 11.2106 19.4848C11.4346 19.5983 11.5381 19.5312 11.773 19.5388C11.6333 19.5591 11.4511 19.6324 11.4451 19.7893C11.6643 19.9035 11.9231 19.7944 12.1524 19.8556C12.2644 19.8854 12.3466 19.9415 12.465 19.9691C12.5834 19.9966 12.7025 20.0191 12.7962 20.0974C12.6054 20.1032 11.9616 20.1572 11.8361 20.329C11.7308 20.474 11.8988 20.8318 11.8122 21.0235C11.6871 20.967 11.4712 20.9126 11.4081 20.7738C11.3528 20.6524 11.3894 20.3878 11.3652 20.2482C11.0716 20.2573 10.7956 20.0169 10.5929 19.8295C10.377 19.6302 10.1343 19.5033 9.91504 19.3061C10.0947 19.3014 10.7609 19.2913 10.8076 19.0861Z" fill="black"/>
<path opacity="0.2" d="M13.7676 18.0897C13.6145 18.1364 13.4505 18.3191 13.5222 18.4793C13.6171 18.691 13.9801 18.703 14.0652 18.4895C13.9726 18.508 13.8942 18.5409 13.8188 18.4666C13.7542 18.4028 13.7179 18.214 13.7676 18.0897Z" fill="black"/>
<path opacity="0.2" d="M14.6267 18.1247C14.4702 18.1059 14.4153 18.4263 14.4489 18.5325C14.5143 18.7391 14.9445 18.6492 14.9807 18.46C14.9023 18.4738 14.8108 18.5144 14.726 18.4962C14.5905 18.4643 14.5311 18.2806 14.6267 18.1247Z" fill="black"/>
<path opacity="0.2" d="M17.5672 18.1163C17.373 18.0858 17.2579 18.2975 17.3267 18.4516C17.423 18.6658 17.7449 18.6437 17.8532 18.4516C17.578 18.5603 17.432 18.3961 17.5672 18.1163Z" fill="black"/>
<path opacity="0.2" d="M18.3885 18.1164C18.1917 18.0878 18.0879 18.3524 18.1573 18.497C18.2723 18.7359 18.6585 18.6579 18.7608 18.4524C18.6634 18.4868 18.5173 18.5459 18.4202 18.4734C18.3373 18.4122 18.316 18.2491 18.3885 18.1164Z" fill="black"/>
<path opacity="0.2" d="M17.1774 19.7379C17.056 19.9984 17.0401 20.2937 17.133 20.565C17.2177 20.8039 17.4653 20.9685 17.6558 21.1156C17.7764 21.2088 17.9919 21.3331 18.1555 21.2802C18.2534 21.2436 18.346 21.1948 18.4311 21.1352C18.4961 21.0834 18.5106 21.0022 18.573 20.9482C18.4133 21.0147 18.2389 21.0411 18.0659 21.0246C17.9411 21.0163 17.7156 20.963 17.6397 20.8539C17.5438 20.7154 17.6427 20.6788 17.7637 20.7089C17.918 20.7488 18.1372 20.83 18.2866 20.7325C18.1592 20.7354 18.0095 20.7557 17.9042 20.6723C17.81 20.598 17.7096 20.3965 17.7047 20.2798C17.6913 19.9481 18.1476 19.8408 18.4012 19.8245C18.2208 19.5791 17.9247 19.8868 17.7443 19.897C17.7036 19.6201 18.2481 19.5345 18.4412 19.5363C18.3508 19.4921 18.1984 19.5117 18.1293 19.4421C18.3409 19.3664 18.5638 19.3248 18.7892 19.3188C18.5965 19.3188 18.4124 19.2384 18.2212 19.2228C18.1274 19.2172 18.0332 19.2216 17.9404 19.2358C17.8511 19.2478 17.7959 19.2935 17.7129 19.3268C17.6453 19.354 17.5781 19.3576 17.512 19.3957C17.3696 19.477 17.2537 19.5956 17.1774 19.7379V19.7379Z" fill="black"/>
<path opacity="0.2" d="M21.3573 10.8403C21.305 10.5935 21.3726 10.2067 21.2142 9.99469C21.0779 9.81346 20.6753 9.7493 20.4673 9.69421C20.1383 9.60794 19.8093 9.40604 19.459 9.42453C19.5949 9.47274 19.6965 9.59199 19.8168 9.66521C19.937 9.73843 20.0554 9.84354 20.1868 9.90263C20.3183 9.96171 20.455 10.0045 20.582 10.0726C20.7089 10.1408 20.8512 10.1941 20.9599 10.2901C21.0787 10.3952 21.1022 10.5196 21.1384 10.6638C21.1952 10.8889 21.2239 11.1329 21.2583 11.3637C21.2856 11.5468 21.2956 11.7302 21.3151 11.9136C21.3334 12.0713 21.3815 12.2199 21.3897 12.3826C21.4166 12.9597 21.5152 13.5509 21.3595 14.1196C21.3172 14.2866 21.2626 14.4505 21.1963 14.61C21.144 14.7293 21.0297 14.8275 20.9879 14.9439C21.0872 14.8677 21.1944 14.8112 21.2781 14.7148C21.3957 14.5785 21.5511 14.4835 21.6474 14.328C21.7221 14.2099 21.7221 14.0989 21.7359 13.9605C21.755 13.7941 21.7031 13.6303 21.7217 13.4664C21.7374 13.2916 21.7361 13.1158 21.7176 12.9412C21.6855 12.5425 21.6254 12.1438 21.5817 11.7451C21.5485 11.441 21.4207 11.1423 21.3573 10.8403Z" fill="black"/>
<path opacity="0.2" d="M21.47 8.76452C21.3757 8.74304 21.2788 8.73438 21.1821 8.73879C21.154 8.87181 21.3848 8.92401 21.3285 9.05486C21.3057 9.10814 21.2485 9.09546 21.2455 9.17375C21.2426 9.25821 21.3288 9.29808 21.3471 9.36948C21.1425 9.45611 21.2799 9.5413 21.3128 9.6881C21.3662 9.64496 21.3329 9.55906 21.3736 9.50686C21.4143 9.45467 21.4838 9.45104 21.5428 9.43437C21.5626 9.34411 21.445 9.30424 21.4424 9.23211C21.439 9.14149 21.5772 9.15961 21.6459 9.14403C21.625 9.08132 21.4681 8.97838 21.4875 8.90117C21.5025 8.84282 21.6586 8.82759 21.47 8.76452Z" fill="black"/>
<path opacity="0.2" d="M17.5052 19.31C17.0301 19.4579 16.7706 19.8269 16.7452 20.3039C16.7342 20.5612 16.8108 20.8148 16.9633 21.0256C17.1384 21.2681 17.5608 21.388 17.8521 21.4243C18.1759 21.4638 18.4627 21.3485 18.711 21.1738C18.2401 21.2989 17.5466 21.28 17.2886 20.7918C17.0484 20.3343 17.1608 19.8697 17.5052 19.31Z" fill="black"/>
<path d="M19.9147 7.28104C19.89 7.27234 19.8654 7.26437 19.84 7.25748C19.6559 7.2071 19.4755 7.21942 19.2899 7.16143C19.0722 7.09364 18.8653 6.99034 18.6367 6.95917C19.0318 7.21616 19.406 7.47134 19.812 7.70694C20.3531 8.02084 20.839 8.40397 21.3566 8.75557C21.7547 9.02597 21.9679 9.2942 22.1644 9.71467C22.2391 9.87705 22.3138 10.046 22.3866 10.2142C22.6267 10.7782 22.8829 11.3788 23.0166 11.9732C23.0973 12.3321 23.154 12.6858 23.2089 13.0454C23.2343 13.2132 23.2634 13.3912 23.3056 13.5529C23.4715 13.0664 23.4311 12.5427 23.3803 12.0443C23.3497 11.7459 23.3396 11.411 23.2463 11.1236C23.1645 10.8717 23.0383 10.6237 22.9262 10.3816C22.6185 9.71793 22.366 9.07672 21.8742 8.51924C21.7405 8.36773 21.6083 8.31916 21.4365 8.2057C21.2363 8.0734 21.0899 7.89289 20.9155 7.73449C20.7598 7.5924 20.5865 7.57899 20.3867 7.49997C20.2254 7.43509 20.0779 7.33976 19.9147 7.28104Z" fill="white"/>
<path d="M23.4484 9.87891C23.2852 9.87384 23.0309 9.9061 22.9424 10.0601C23.0977 10.1689 23.3984 10.1171 23.5937 10.1515C23.7756 10.1834 24.0284 10.2156 24.1972 10.2939C24.5479 10.4563 24.6293 10.8471 24.8642 11.0914C24.8807 10.8993 24.8757 10.7061 24.8492 10.515C24.8194 10.3421 24.8085 10.4009 24.689 10.3124C24.5232 10.1892 24.3865 10.0688 24.1852 9.99744C24.0374 9.94561 23.8719 9.93328 23.4484 9.87891Z" fill="white"/>
<path d="M25.3718 10.1506C25.2759 10.1535 24.9371 10.2423 24.9237 10.3496C24.9035 10.5062 25.2527 10.4355 25.3629 10.4405C25.7292 10.4576 25.9724 10.6461 26.0963 10.9788C26.1124 10.79 26.1572 10.4438 25.9794 10.313C25.8465 10.2155 25.5623 10.1962 25.3718 10.1506Z" fill="white"/>
<path d="M26.8656 10.3309C26.7562 10.2976 26.5388 10.2856 26.4268 10.3331C26.2307 10.4157 26.2199 10.5622 26.4175 10.6028C26.7502 10.6713 26.9903 10.5752 27.2902 10.763C27.4056 10.5977 27.0549 10.407 26.959 10.3128" fill="white"/>
<path d="M17.9063 9.69382C17.7606 9.68186 17.6322 9.67715 17.5489 9.67208C17.2419 9.65431 16.4592 9.71521 16.7665 10.1944C16.9659 10.505 17.6169 10.3851 17.9369 10.3445C18.27 10.3024 18.5935 10.2912 18.9269 10.2741C19.0173 9.84534 18.3727 9.73225 17.9063 9.69382Z" fill="white"/>
<path d="M16.6142 5.89158C16.4604 5.83685 16.3106 5.89666 16.4275 6.03186C16.5194 6.13806 16.6815 6.17685 16.7707 6.30009C16.8648 6.42804 16.9948 6.83292 17.2271 6.70388C17.2648 6.48966 16.9414 6.05905 16.6142 5.89158Z" fill="white"/>
<path d="M16.3154 3.42661C16.1559 3.37913 16.0282 3.41755 16.1473 3.54442C16.1892 3.58864 16.2508 3.54985 16.2967 3.62597C16.3296 3.68071 16.3102 3.76262 16.2997 3.82243C16.5454 3.88115 16.4386 3.48533 16.3341 3.40849" fill="white"/>
<path d="M19.0602 18.8139C18.9179 18.7842 18.7573 18.7516 18.6027 18.7596C18.3084 18.7748 18.4003 18.8821 18.6259 18.9452C18.7969 18.993 19.0086 19.0408 19.1465 19.1579C19.2843 19.275 19.325 19.462 19.4292 19.6096C19.3709 19.5269 19.5785 18.7327 19.3586 18.723" fill="white"/>
<path d="M21.0399 17.3087C20.9327 17.2493 20.1216 16.8074 20.203 17.1242C20.5608 17.2692 20.892 17.4802 21.2453 17.6418C21.5011 17.7589 21.9198 18.0957 22.2133 18.067C22.2357 17.9068 21.965 17.7288 21.8398 17.6531C21.7469 17.5973 21.6419 17.5697 21.5493 17.5121C21.4567 17.4544 21.3839 17.3566 21.0399 17.3087Z" fill="white"/>
<path d="M22.6641 18.0709C22.5286 18.064 22.3359 18.0096 22.2324 18.1071C22.3941 18.2735 22.6227 18.1908 22.7388 18.4257C22.8217 18.5935 22.8243 18.8324 22.8539 19.0104C23.0458 19.0104 23.0671 18.7567 23.0563 18.6142C23.0398 18.3982 22.8908 18.3329 22.6641 18.0709Z" fill="white"/>
<path d="M22.3546 19.2682C22.0973 19.3639 21.7922 19.6075 21.7373 19.8794C21.8691 19.8373 22.0081 19.8156 22.1298 19.7474C22.2516 19.6793 22.3412 19.5716 22.4536 19.4937C22.4749 19.4792 22.7994 19.2704 22.7318 19.2458C22.6172 19.2059 22.485 19.2197 22.3546 19.2682Z" fill="white"/>
<path d="M20.0162 22.1188L20.0002 22.1156C19.8859 22.0971 19.6831 22.3251 19.5931 22.3834C19.5031 22.4418 19.1969 22.5581 19.1917 22.6734C19.1797 22.9235 19.5976 22.6527 19.6771 22.5991C19.7567 22.5455 20.2508 22.1761 20.0162 22.1188Z" fill="white"/>
<path d="M20.6482 19.5385C20.5881 19.52 20.4159 19.4443 20.4241 19.5567C20.4293 19.6291 20.6262 19.7038 20.6855 19.7426C20.7771 19.7968 20.8592 19.8647 20.929 19.9438C21.0074 20.0445 21.0269 20.1754 21.1247 20.2642C21.2259 20.1917 21.1352 19.9257 21.1012 19.8292C21.0515 19.6893 20.9264 19.6371 20.854 19.519" fill="white"/>
<path d="M20.1498 17.7618C20.0848 17.9651 20.1125 18.2073 20.1054 18.4186C20.0965 18.6593 20.1084 18.9003 20.1408 19.1392C20.1535 19.2283 20.1554 19.3603 20.2308 19.3929C20.3287 19.4353 20.459 19.4223 20.5625 19.4349C20.5845 19.2871 20.5516 19.1743 20.5154 19.0362C20.468 18.855 20.4572 18.6553 20.4295 18.4697C20.3781 18.1492 20.3076 17.8318 20.2182 17.5193C20.2182 17.6066 20.176 17.6802 20.1498 17.7618Z" fill="white"/>
<path d="M9.01439 9.96889C8.82766 9.90328 7.97768 10.0225 7.99038 10.2918C8.23686 10.3785 8.63757 10.223 8.89376 10.1856C9.04314 10.1643 9.50548 10.1559 9.51556 9.97179C9.48119 9.95721 9.44402 9.94992 9.40651 9.9504" fill="white"/>
<path d="M7.20332 10.2046C7.05393 10.1574 6.40151 10.2684 6.62857 10.422C6.75106 10.5047 7.02667 10.3927 7.16597 10.3858C7.29588 10.3783 7.42624 10.3834 7.55511 10.401C7.58536 10.2676 7.43299 10.198 7.31535 10.2046" fill="white"/>
<path d="M5.96128 10.4926C6.07992 10.4783 6.2003 10.488 6.31494 10.5208C6.21934 10.3291 6.06062 10.3233 5.86679 10.3479C5.74768 10.3604 5.63085 10.3884 5.51948 10.4313C5.49409 10.4418 5.30661 10.5647 5.30176 10.5632C5.5882 10.656 5.68866 10.5241 5.96128 10.4926Z" fill="white"/>
<path d="M19.434 23.3445C19.2895 23.3506 19.2443 23.6225 19.1819 23.7341C19.1162 23.8523 18.9429 23.9904 18.9515 24.1209C19.4254 24.2082 19.434 23.6903 19.434 23.3445Z" fill="white"/>
<path d="M18.841 25.3642C19.0811 25.0148 19.2174 24.6508 19.1356 24.1597C18.8914 24.1032 18.7722 24.8408 18.6822 25.0256C18.5205 25.3577 18.2341 25.6484 17.9857 25.9238C17.8315 26.096 17.6698 26.2805 17.5312 26.4578C17.9495 26.5042 18.3641 25.9652 18.59 25.6919C18.9347 25.2754 19.0979 24.6925 19.0979 24.1601" fill="white"/>
<path d="M23.374 10.4236C23.628 10.3678 24.0149 10.2899 24.2516 10.4236" stroke="#1E1E1E" stroke-width="0.112036" stroke-linecap="round" stroke-linejoin="round"/>
<path d="M24.4014 10.6219H24.4387" stroke="#1E1E1E" stroke-width="0.112036" stroke-linecap="round" stroke-linejoin="round"/>
<path d="M24.4756 10.8039C24.4829 10.8041 24.4901 10.8025 24.4966 10.7993C24.5031 10.796 24.5087 10.7912 24.5129 10.7852" stroke="#1E1E1E" stroke-width="0.112036" stroke-linecap="round" stroke-linejoin="round"/>
<path d="M25.1484 10.6404C25.2896 10.5795 25.4255 10.5864 25.5779 10.586" stroke="#1E1E1E" stroke-width="0.112036" stroke-linecap="round" stroke-linejoin="round"/>
<path d="M26.3994 10.6407C26.6277 10.5989 26.8638 10.6307 27.0716 10.7313" stroke="#1E1E1E" stroke-width="0.112036" stroke-linecap="round" stroke-linejoin="round"/>
<path d="M27.0527 10.8941H27.1461" stroke="#1E1E1E" stroke-width="0.112036" stroke-linecap="round" stroke-linejoin="round"/>
<path d="M23.7295 13.7755H23.9536" stroke="#1E1E1E" stroke-width="0.112036" stroke-linecap="round" stroke-linejoin="round"/>
<path d="M25.3906 13.1594C25.4322 13.1266 25.4759 13.0964 25.5213 13.0688" stroke="#1E1E1E" stroke-width="0.112036" stroke-linecap="round" stroke-linejoin="round"/>
<path d="M26.5674 11.8551C26.5961 11.8349 26.6213 11.8105 26.6421 11.7826" stroke="#1E1E1E" stroke-width="0.112036" stroke-linecap="round" stroke-linejoin="round"/>
<path d="M25.8021 10.6219L25.7461 10.6944" stroke="#1E1E1E" stroke-width="0.112036" stroke-linecap="round" stroke-linejoin="round"/>
<path d="M25.9516 10.7308C25.9327 10.7391 25.9161 10.7516 25.9031 10.7674C25.8901 10.7831 25.8811 10.8016 25.877 10.8214" stroke="#1E1E1E" stroke-width="0.112036" stroke-linecap="round" stroke-linejoin="round"/>
<path d="M21.2461 8.90097C21.2748 8.88006 21.3182 8.8894 21.3581 8.91965" stroke="#1E1E1E" stroke-width="0.112036" stroke-linecap="round" stroke-linejoin="round"/>
<path d="M21.1895 9.15399C21.2201 9.22649 21.3063 9.2457 21.3762 9.26273" stroke="#1E1E1E" stroke-width="0.112036" stroke-linecap="round" stroke-linejoin="round"/>
<path d="M15.8115 6.18213C16.0236 6.03062 16.2839 6.07992 16.5211 6.10964" stroke="#1E1E1E" stroke-width="0.112036" stroke-linecap="round" stroke-linejoin="round"/>
<path d="M16.6523 6.25524C16.6669 6.23801 16.6864 6.22538 16.7084 6.21899" stroke="#1E1E1E" stroke-width="0.112036" stroke-linecap="round" stroke-linejoin="round"/>
<path d="M16.7646 6.40008C16.7719 6.4003 16.7792 6.39871 16.7857 6.39545C16.7922 6.39219 16.7978 6.38737 16.802 6.38141" stroke="#1E1E1E" stroke-width="0.112036" stroke-linecap="round" stroke-linejoin="round"/>
<path d="M16.2227 3.59033C16.3056 3.59033 16.344 3.65594 16.3534 3.73532" stroke="#1E1E1E" stroke-width="0.112036" stroke-linecap="round" stroke-linejoin="round"/>
<path d="M8.71582 10.2418V10.3143" stroke="#1E1E1E" stroke-width="0.112036" stroke-linecap="round" stroke-linejoin="round"/>
<path d="M8.95898 10.1873V10.3142" stroke="#1E1E1E" stroke-width="0.112036" stroke-linecap="round" stroke-linejoin="round"/>
<path d="M8.06314 10.5323C8.01011 11.4338 7.77745 12.5259 8.11916 13.3959" stroke="#1E1E1E" stroke-width="0.112036" stroke-linecap="round" stroke-linejoin="round"/>
<path d="M8.54834 13.3041C8.5386 13.3531 8.54514 13.4039 8.56701 13.4491" stroke="#1E1E1E" stroke-width="0.112036" stroke-linecap="round" stroke-linejoin="round"/>
<path d="M8.71582 13.4314V13.522" stroke="#1E1E1E" stroke-width="0.112036" stroke-linecap="round" stroke-linejoin="round"/>
<path d="M6.73715 10.6948C6.62176 11.0953 6.60645 11.4922 6.60645 11.9138C6.60645 12.3737 6.76852 12.6833 6.99857 13.0689" stroke="#1E1E1E" stroke-width="0.112036" stroke-linecap="round" stroke-linejoin="round"/>
<path d="M7.11035 10.5323V10.6773" stroke="#1E1E1E" stroke-width="0.112036" stroke-linecap="round" stroke-linejoin="round"/>
<path d="M7.24121 10.5675V10.7487" stroke="#1E1E1E" stroke-width="0.112036" stroke-linecap="round" stroke-linejoin="round"/>
<path d="M5.93416 10.5499C5.92382 10.5587 5.91649 10.5704 5.91315 10.5833C5.90981 10.5963 5.91063 10.6099 5.91549 10.6224" stroke="#1E1E1E" stroke-width="0.112036" stroke-linecap="round" stroke-linejoin="round"/>
<path d="M6.08313 10.6219C6.08251 10.6472 6.07613 10.6719 6.06445 10.6944" stroke="#1E1E1E" stroke-width="0.112036" stroke-linecap="round" stroke-linejoin="round"/>
<path d="M5.41113 10.8028C5.44848 11.1732 5.69869 11.7336 6.02733 11.9446" stroke="#1E1E1E" stroke-width="0.112036" stroke-linecap="round" stroke-linejoin="round"/>
<path d="M9.83691 14.6456C9.8385 14.6638 9.84438 14.6815 9.85409 14.6972C9.8638 14.7129 9.87709 14.7262 9.89293 14.7362" stroke="#1E1E1E" stroke-width="0.112036" stroke-linecap="round" stroke-linejoin="round"/>
<path d="M10.0234 14.4647C10.0373 14.5445 10.0724 14.6333 10.1355 14.6822" stroke="#1E1E1E" stroke-width="0.112036" stroke-linecap="round" stroke-linejoin="round"/>
<path d="M19.9941 17.9985H20.0875" stroke="#1E1E1E" stroke-width="0.112036" stroke-linecap="round" stroke-linejoin="round"/>
<path d="M19.957 18.3074C19.9731 18.3041 19.9896 18.3041 20.0056 18.3073C20.0216 18.3105 20.0369 18.3169 20.0504 18.3261" stroke="#1E1E1E" stroke-width="0.112036" stroke-linecap="round" stroke-linejoin="round"/>
<path d="M18.9863 23.5269C19.0277 23.5101 19.0726 23.5037 19.117 23.5083" stroke="#1E1E1E" stroke-width="0.112036" stroke-linecap="round" stroke-linejoin="round"/>
<path d="M18.9678 23.6895H19.0238" stroke="#1E1E1E" stroke-width="0.112036" stroke-linecap="round" stroke-linejoin="round"/>
<path d="M13.384 23.4542C13.3814 23.5477 13.4005 23.6406 13.44 23.726" stroke="#1E1E1E" stroke-width="0.112036" stroke-linecap="round" stroke-linejoin="round"/>
<path d="M14.1123 23.9616C14.7942 24.0704 15.5441 24.0885 16.241 24.0885" stroke="#1E1E1E" stroke-width="0.112036" stroke-linecap="round" stroke-linejoin="round"/>
<path d="M20.1064 19.7572C20.1755 19.7258 20.2954 19.7385 20.3865 19.7385" stroke="#1E1E1E" stroke-width="0.112036" stroke-linecap="round" stroke-linejoin="round"/>
<path d="M20.2373 19.8843H20.3493" stroke="#1E1E1E" stroke-width="0.112036" stroke-linecap="round" stroke-linejoin="round"/>
<path d="M12.0957 19.7756C12.1159 19.7921 12.2216 19.7499 12.3011 19.757" stroke="#1E1E1E" stroke-width="0.112036" stroke-linecap="round" stroke-linejoin="round"/>
<path d="M12.0957 19.9739H12.2264" stroke="#1E1E1E" stroke-width="0.112036" stroke-linecap="round" stroke-linejoin="round"/>
<path d="M9.98583 18.3436C9.77333 18.4523 9.6232 18.9685 9.98583 18.9416" stroke="#1E1E1E" stroke-width="0.112036" stroke-linecap="round" stroke-linejoin="round"/>
<path d="M10.2288 18.8141C10.203 18.8421 10.1993 18.8696 10.2288 18.8866" stroke="#1E1E1E" stroke-width="0.112036" stroke-linecap="round" stroke-linejoin="round"/>
<path d="M10.3785 18.8326C10.3718 18.8529 10.3785 18.8659 10.3972 18.8688" stroke="#1E1E1E" stroke-width="0.112036" stroke-linecap="round" stroke-linejoin="round"/>
<path d="M11.0693 17.7989C11.2874 17.6496 11.6848 17.5491 11.947 17.527" stroke="#1E1E1E" stroke-width="0.112036" stroke-linecap="round" stroke-linejoin="round"/>
<path d="M11.3867 17.9443C11.4099 17.9327 11.4354 17.9263 11.4614 17.9257" stroke="#1E1E1E" stroke-width="0.112036" stroke-linecap="round" stroke-linejoin="round"/>
<path d="M10.6211 19.4305C10.6908 19.514 10.7725 19.5872 10.8638 19.648" stroke="#1E1E1E" stroke-width="0.112036" stroke-linecap="round" stroke-linejoin="round"/>
<path d="M10.9385 19.448L10.9571 19.4667" stroke="#1E1E1E" stroke-width="0.112036" stroke-linecap="round" stroke-linejoin="round"/>
<path d="M21.2266 17.6719C21.2693 17.6866 21.313 17.6987 21.3573 17.7082" stroke="#1E1E1E" stroke-width="0.112036" stroke-linecap="round" stroke-linejoin="round"/>
<path d="M22.4775 18.4515C22.5855 18.5356 22.6833 18.7223 22.5522 18.8321" stroke="#1E1E1E" stroke-width="0.112036" stroke-linecap="round" stroke-linejoin="round"/>
<path d="M21.899 19.4664C21.8665 19.4951 21.8322 19.5288 21.8057 19.5571" stroke="#1E1E1E" stroke-width="0.112036" stroke-linecap="round" stroke-linejoin="round"/>
<path d="M21.5814 19.6658C21.5561 19.676 21.5359 19.6955 21.5254 19.7201" stroke="#1E1E1E" stroke-width="0.112036" stroke-linecap="round" stroke-linejoin="round"/>
<path d="M18.3137 24.9756C17.9108 25.8909 17.097 26.299 16.1104 26.2987" stroke="#1E1E1E" stroke-width="0.112036" stroke-linecap="round" stroke-linejoin="round"/>
<path d="M19.2475 25.2662C19.227 25.3967 19.1269 25.5834 19.0234 25.665" stroke="#1E1E1E" stroke-width="0.112036" stroke-linecap="round" stroke-linejoin="round"/>
<path d="M19.5091 25.4296C19.4948 25.4678 19.476 25.5042 19.4531 25.5383" stroke="#1E1E1E" stroke-width="0.112036" stroke-linecap="round" stroke-linejoin="round"/>
<path d="M13.2354 25.592C13.3444 25.7446 13.4968 26.0549 13.6648 26.1357" stroke="#1E1E1E" stroke-width="0.112036" stroke-linecap="round" stroke-linejoin="round"/>
<path d="M13.0674 25.9186C13.1016 25.9522 13.1328 25.9886 13.1607 26.0273" stroke="#1E1E1E" stroke-width="0.112036" stroke-linecap="round" stroke-linejoin="round"/>
<path d="M14.2618 26.6622H14.2432" stroke="#1E1E1E" stroke-width="0.112036" stroke-linecap="round" stroke-linejoin="round"/>
<path d="M13.9445 26.6253H13.9258" stroke="#1E1E1E" stroke-width="0.112036" stroke-linecap="round" stroke-linejoin="round"/>
<path d="M18.5568 26.4445C18.5583 26.4584 18.552 26.4646 18.5381 26.4631" stroke="#1E1E1E" stroke-width="0.112036" stroke-linecap="round" stroke-linejoin="round"/>
<path d="M21.0771 7.46832C21.4416 7.66188 21.7834 7.97071 22.0295 8.28388" stroke="#1E1E1E" stroke-width="0.112036" stroke-linecap="round" stroke-linejoin="round"/>
<path d="M21.7314 7.46832C21.7807 7.50747 21.8278 7.56728 21.8808 7.61331" stroke="#1E1E1E" stroke-width="0.112036" stroke-linecap="round" stroke-linejoin="round"/>
<path d="M15.6065 3.95294C15.5613 3.97868 15.4919 4.01239 15.4385 4.04356" stroke="#1E1E1E" stroke-width="0.112036" stroke-linecap="round" stroke-linejoin="round"/>
<path d="M15.5694 3.4273C15.5142 3.41606 15.4574 3.40338 15.4014 3.39105" stroke="#1E1E1E" stroke-width="0.112036" stroke-linecap="round" stroke-linejoin="round"/>
<path d="M16.1484 3.02859V2.88361" stroke="#1E1E1E" stroke-width="0.112036" stroke-linecap="round" stroke-linejoin="round"/>
<path d="M16.7832 3.29998C16.8138 3.28766 16.8456 3.27533 16.8766 3.26373" stroke="#1E1E1E" stroke-width="0.112036" stroke-linecap="round" stroke-linejoin="round"/>
<path d="M16.9883 3.95294C17.0219 3.974 17.0604 3.98647 17.1003 3.98919" stroke="#1E1E1E" stroke-width="0.112036" stroke-linecap="round" stroke-linejoin="round"/>
<path d="M6.625 9.87882C6.85131 9.8085 7.21543 9.6443 7.40925 9.87882" stroke="#1E1E1E" stroke-width="0.112036" stroke-linecap="round" stroke-linejoin="round"/>
<path d="M6.84863 9.58942H7.05403" stroke="#1E1E1E" stroke-width="0.112036" stroke-linecap="round" stroke-linejoin="round"/>
<path d="M26.9404 12.3625C27.1152 12.2208 27.3031 12.0001 27.3512 11.7826" stroke="#1E1E1E" stroke-width="0.112036" stroke-linecap="round" stroke-linejoin="round"/>
<path d="M27.2578 12.3622C27.3191 12.3259 27.3628 12.2534 27.4259 12.2172" stroke="#1E1E1E" stroke-width="0.112036" stroke-linecap="round" stroke-linejoin="round"/>
<path d="M23.3184 18.3436C23.3647 18.4784 23.3557 18.5886 23.3184 18.7242" stroke="#1E1E1E" stroke-width="0.112036" stroke-linecap="round" stroke-linejoin="round"/>
<path d="M23.5234 18.4155C23.5268 18.471 23.5331 18.5243 23.5421 18.5786" stroke="#1E1E1E" stroke-width="0.112036" stroke-linecap="round" stroke-linejoin="round"/>
<path d="M16.2604 6.81037C15.1258 6.79297 13.9487 6.8448 12.8619 7.19096C11.7009 7.56105 10.7941 8.18341 10.148 9.17259C9.83024 9.65902 9.47583 10.4195 9.34997 10.9849C9.10798 12.0752 9.02694 13.3269 9.26445 14.4222C9.62036 16.0635 11.4865 16.8838 13.0442 17.102C14.096 17.2485 15.1561 17.3318 16.2185 17.3514C17.3146 17.3713 18.3898 17.2539 19.4754 17.102C21.0331 16.8845 22.8989 16.0635 23.2552 14.4222C23.4927 13.3269 23.4117 12.0752 23.1697 10.9849C23.0442 10.4202 22.6894 9.65975 22.3716 9.17259C21.7255 8.18341 20.8188 7.56105 19.6577 7.19096C18.5709 6.8448 17.3942 6.79225 16.2593 6.81037" stroke="#1E1E1E" stroke-width="0.186727" stroke-linecap="round" stroke-linejoin="round"/>
<path d="M9.71421 9.96752C9.04871 9.82615 8.23234 9.96426 7.68262 10.3554" stroke="#1E1E1E" stroke-width="0.186727" stroke-linecap="round" stroke-linejoin="round"/>
<path d="M7.68254 10.3559C7.55668 10.2286 7.34008 10.1746 7.1597 10.1746C7.02192 10.1707 6.88467 10.1929 6.75562 10.2399C6.69126 10.2638 6.63247 10.2999 6.5827 10.3461C6.53293 10.3924 6.49319 10.4478 6.46582 10.5092" stroke="#1E1E1E" stroke-width="0.186727" stroke-linecap="round" stroke-linejoin="round"/>
<path d="M6.46433 10.5093C5.91049 10.083 5.41529 10.3929 5.09375 10.7431" stroke="#1E1E1E" stroke-width="0.186727" stroke-linecap="round" stroke-linejoin="round"/>
<path d="M5.09375 10.744C5.1193 10.9731 5.18577 11.1962 5.29019 11.4033C5.52248 11.8256 5.90788 12.2921 6.34669 12.5103" stroke="#1E1E1E" stroke-width="0.186727" stroke-linecap="round" stroke-linejoin="round"/>
<path d="M6.34668 12.5096C6.44116 13.0953 6.99836 13.5785 7.60896 13.6032" stroke="#1E1E1E" stroke-width="0.186727" stroke-linecap="round" stroke-linejoin="round"/>
<path d="M7.60938 13.6044C7.7666 13.8327 8.05565 13.9842 8.33425 14.0332C8.61893 14.0761 8.90879 14.0752 9.1932 14.0306" stroke="#1E1E1E" stroke-width="0.186727" stroke-linecap="round" stroke-linejoin="round"/>
<path d="M10.703 19.1102C11.2192 18.8101 10.8845 18.0935 10.3483 18.0761C9.89712 18.0616 9.51695 18.1848 9.47139 18.6723C9.42881 19.1254 9.91057 19.3016 10.3012 19.2487C10.4432 19.2284 10.5797 19.1814 10.703 19.1102V19.1102Z" stroke="#1E1E1E" stroke-width="0.186727" stroke-linecap="round" stroke-linejoin="round"/>
<path d="M9.7168 18.2111C10.5115 17.7511 11.4384 17.2038 12.331 16.9634" stroke="#1E1E1E" stroke-width="0.186727" stroke-linecap="round" stroke-linejoin="round"/>
<path d="M10.96 18.6965C11.3218 18.5203 11.7745 18.334 12.1457 18.1785" stroke="#1E1E1E" stroke-width="0.186727" stroke-linecap="round" stroke-linejoin="round"/>
<path d="M9.62109 19.0749C10.1858 19.5747 10.7224 20.0097 11.3016 20.3098" stroke="#1E1E1E" stroke-width="0.186727" stroke-linecap="round" stroke-linejoin="round"/>
<path d="M10.96 18.7825C11.0249 18.8188 11.1314 18.8978 11.1934 18.9391C11.4395 19.103 11.705 19.2969 11.9511 19.4607" stroke="#1E1E1E" stroke-width="0.186727" stroke-linecap="round" stroke-linejoin="round"/>
<path d="M11.8284 20.3395C12.1372 20.2464 12.46 20.2039 12.7833 20.2138C12.8337 20.0521 12.8617 19.8846 12.8666 19.7157C12.8699 19.6876 12.8647 19.6591 12.8516 19.6338C12.8382 19.616 12.8207 19.6014 12.8005 19.5914C12.554 19.4501 12.2605 19.4075 11.9822 19.4725C11.4795 19.5929 11.2122 19.9524 11.3257 20.4454C11.3929 20.7372 11.5916 21.0206 11.8403 21.0801" stroke="#1E1E1E" stroke-width="0.186727" stroke-linecap="round" stroke-linejoin="round"/>
<path d="M12.3307 16.9625C12.2149 17.736 12.0846 18.5712 11.9688 19.3447L11.9482 19.4821" stroke="#1E1E1E" stroke-width="0.186727" stroke-linecap="round" stroke-linejoin="round"/>
<path d="M13.0859 18.7825C12.9832 19.6235 12.9365 20.5695 13.0018 21.4141" stroke="#1E1E1E" stroke-width="0.186727" stroke-linecap="round" stroke-linejoin="round"/>
<path d="M13.0859 18.7825C15.2094 18.846 17.3105 18.846 19.4347 18.7825" stroke="#1E1E1E" stroke-width="0.186727" stroke-linecap="round" stroke-linejoin="round"/>
<path d="M13.002 21.4147C14.045 21.7365 15.1609 21.7877 16.2476 21.7616C17.3344 21.7355 18.4667 21.7391 19.5184 21.4147" stroke="#1E1E1E" stroke-width="0.186727" stroke-linecap="round" stroke-linejoin="round"/>
<path d="M19.0946 24.072C19.0961 24.1056 19.0969 24.1395 19.0969 24.1735C19.0969 25.6444 17.7987 26.8366 16.1974 26.8366C14.596 26.8366 13.2979 25.6444 13.2979 24.1735C13.2979 24.13 13.299 24.0869 13.3012 24.0441" stroke="#1E1E1E" stroke-width="0.186727" stroke-linecap="round" stroke-linejoin="round"/>
<path d="M7.68227 10.356C7.62252 11.4387 7.42795 12.6163 7.60758 13.6037" stroke="#1E1E1E" stroke-width="0.186727" stroke-linecap="round" stroke-linejoin="round"/>
<path d="M6.46394 10.5096C6.31266 11.1656 6.27293 11.8412 6.3463 12.5097" stroke="#1E1E1E" stroke-width="0.186727" stroke-linecap="round" stroke-linejoin="round"/>
<path d="M17.2933 6.81984C17.2287 6.31238 16.8731 5.85204 16.2599 5.83356C15.6467 5.85204 15.2912 6.31166 15.2266 6.81984" stroke="#1E1E1E" stroke-width="0.186727" stroke-linecap="round" stroke-linejoin="round"/>
<path d="M22.8066 9.96752C23.4721 9.82615 24.2885 9.96426 24.8382 10.3554" stroke="#1E1E1E" stroke-width="0.186727" stroke-linecap="round" stroke-linejoin="round"/>
<path d="M24.8379 10.3559C24.9637 10.2286 25.1803 10.1746 25.3607 10.1746C25.4985 10.1707 25.6358 10.1929 25.7648 10.2399C25.8292 10.2638 25.888 10.2999 25.9377 10.3461C25.9875 10.3924 26.0272 10.4478 26.0546 10.5092" stroke="#1E1E1E" stroke-width="0.186727" stroke-linecap="round" stroke-linejoin="round"/>
<path d="M26.0557 10.5093C26.6095 10.083 27.1047 10.3929 27.4262 10.7431" stroke="#1E1E1E" stroke-width="0.186727" stroke-linecap="round" stroke-linejoin="round"/>
<path d="M27.4268 10.744C27.4012 10.9731 27.3347 11.1962 27.2303 11.4033C26.998 11.8256 26.6126 12.2921 26.1738 12.5103" stroke="#1E1E1E" stroke-width="0.186727" stroke-linecap="round" stroke-linejoin="round"/>
<path d="M26.1734 12.5096C26.0789 13.0953 25.5217 13.5785 24.9111 13.6032" stroke="#1E1E1E" stroke-width="0.186727" stroke-linecap="round" stroke-linejoin="round"/>
<path d="M24.911 13.6044C24.7537 13.8327 24.4647 13.9842 24.1861 14.0332C23.9014 14.0761 23.6116 14.0752 23.3271 14.0306" stroke="#1E1E1E" stroke-width="0.186727" stroke-linecap="round" stroke-linejoin="round"/>
<path d="M19.2625 15.8671C20.2238 15.5887 21.1671 15.0026 21.7702 14.2233C21.7844 12.8097 21.5305 11.3196 21.16 9.95125C20.6394 9.7532 20.1087 9.5814 19.5698 9.43654C18.2599 9.07769 16.8992 8.9252 15.5395 8.9849C14.1006 9.05269 12.6942 9.44234 11.3598 9.95125C10.989 11.3196 10.7354 12.8086 10.7496 14.2233C11.3516 15.0023 12.2961 15.5887 13.2573 15.8671C15.1485 16.4148 17.3739 16.4141 19.2625 15.8671Z" stroke="#1E1E1E" stroke-width="0.186727" stroke-linecap="round" stroke-linejoin="round"/>
<path d="M21.8177 19.1102C21.3015 18.8101 21.6362 18.0935 22.1724 18.0761C22.6236 18.0616 23.0037 18.1848 23.0493 18.6723C23.0919 19.1254 22.6101 19.3016 22.2195 19.2487C22.0775 19.2284 21.941 19.1814 21.8177 19.1102V19.1102Z" stroke="#1E1E1E" stroke-width="0.186727" stroke-linecap="round" stroke-linejoin="round"/>
<path d="M22.8027 18.2111C22.0079 17.7511 21.081 17.2038 20.1885 16.9634" stroke="#1E1E1E" stroke-width="0.186727" stroke-linecap="round" stroke-linejoin="round"/>
<path d="M21.5607 18.6965C21.1988 18.5203 20.7462 18.334 20.375 18.1785" stroke="#1E1E1E" stroke-width="0.186727" stroke-linecap="round" stroke-linejoin="round"/>
<path d="M22.8993 19.0749C22.3346 19.5747 21.798 20.0097 21.2188 20.3098" stroke="#1E1E1E" stroke-width="0.186727" stroke-linecap="round" stroke-linejoin="round"/>
<path d="M21.5605 18.7825C21.4955 18.8188 21.3891 18.8978 21.3271 18.9391C21.081 19.103 20.8154 19.2969 20.5693 19.4607" stroke="#1E1E1E" stroke-width="0.186727" stroke-linecap="round" stroke-linejoin="round"/>
<path d="M20.6915 20.3395C20.3827 20.2464 20.0599 20.2039 19.7366 20.2138C19.6862 20.0521 19.6582 19.8846 19.6533 19.7157C19.65 19.6876 19.6552 19.6591 19.6683 19.6338C19.6817 19.616 19.6992 19.6014 19.7194 19.5914C19.9659 19.4501 20.2594 19.4075 20.5377 19.4725C21.0404 19.5929 21.3077 19.9524 21.1942 20.4454C21.127 20.7372 20.9283 21.0206 20.6796 21.0801" stroke="#1E1E1E" stroke-width="0.186727" stroke-linecap="round" stroke-linejoin="round"/>
<path d="M20.6755 20.3395C20.7051 20.6778 20.696 21.0182 20.6482 21.3545C20.4701 22.5038 19.7362 23.0787 18.6062 23.2987C17.8341 23.4477 17.0474 23.5129 16.2605 23.493C15.4735 23.5128 14.6866 23.4475 13.9144 23.2984C12.7847 23.0784 12.0505 22.5035 11.8724 21.3541C11.8246 21.0178 11.8155 20.6774 11.8451 20.3392" stroke="#1E1E1E" stroke-width="0.186727" stroke-linecap="round" stroke-linejoin="round"/>
<path d="M20.1895 16.9625C20.3052 17.736 20.4356 18.5712 20.5513 19.3447L20.5719 19.4821" stroke="#1E1E1E" stroke-width="0.186727" stroke-linecap="round" stroke-linejoin="round"/>
<path d="M19.4346 18.7825C19.5373 19.6235 19.584 20.5695 19.5186 21.4141" stroke="#1E1E1E" stroke-width="0.186727" stroke-linecap="round" stroke-linejoin="round"/>
<path d="M19.4415 23.0345C19.4789 23.3607 19.502 23.68 19.4068 23.995C18.0026 24.3937 16.4939 24.3611 15.0523 24.285C14.3999 24.2506 13.743 24.173 13.1141 23.995C13.0189 23.68 13.0394 23.3603 13.0794 23.0345" stroke="#1E1E1E" stroke-width="0.186727" stroke-linecap="round" stroke-linejoin="round"/>
<path d="M24.8379 10.356C24.8976 11.4387 25.0922 12.6163 24.9126 13.6037" stroke="#1E1E1E" stroke-width="0.186727" stroke-linecap="round" stroke-linejoin="round"/>
<path d="M26.0557 10.5096C26.2069 11.1656 26.2467 11.8412 26.1733 12.5097" stroke="#1E1E1E" stroke-width="0.186727" stroke-linecap="round" stroke-linejoin="round"/>
<path d="M13.2345 11.4446C13.2345 11.271 13.0895 11.1303 12.9107 11.1303C12.7319 11.1303 12.5869 11.271 12.5869 11.4446V12.3102C12.5869 12.4837 12.7319 12.6244 12.9107 12.6244C13.0895 12.6244 13.2345 12.4837 13.2345 12.3102V11.4446Z" fill="#1E1E1E" stroke="#1E1E1E" stroke-width="0.186727" stroke-linecap="round" stroke-linejoin="round"/>
<path d="M12.4258 11.3112L12.5879 11.4" stroke="#1E1E1E" stroke-width="0.186727" stroke-linecap="round" stroke-linejoin="round"/>
<path d="M12.3877 11.5254C12.4524 11.5474 12.5192 11.5631 12.5871 11.5721" stroke="#1E1E1E" stroke-width="0.186727" stroke-linecap="round" stroke-linejoin="round"/>
<path d="M19.4755 12.3103C19.4755 12.4839 19.6204 12.6246 19.7993 12.6246C19.9781 12.6246 20.123 12.4839 20.123 12.3103V11.4447C20.123 11.2712 19.9781 11.1305 19.7993 11.1305C19.6204 11.1305 19.4755 11.2712 19.4755 11.4447V12.3103Z" fill="#1E1E1E" stroke="#1E1E1E" stroke-width="0.186727" stroke-linecap="round" stroke-linejoin="round"/>
<path d="M20.2851 11.3112L20.123 11.4" stroke="#1E1E1E" stroke-width="0.186727" stroke-linecap="round" stroke-linejoin="round"/>
<path d="M20.3225 11.5254C20.2578 11.5474 20.191 11.5631 20.123 11.5721" stroke="#1E1E1E" stroke-width="0.186727" stroke-linecap="round" stroke-linejoin="round"/>
<path d="M15.0676 14.4418C16.2255 14.4404 17.3815 14.3839 18.5355 14.2722L18.5377 13.5589C18.5423 13.5224 18.533 13.4855 18.5116 13.4552C18.4795 13.419 18.4234 13.4226 18.3756 13.4273C16.9709 13.5618 15.56 13.6256 14.1485 13.6183C14.1363 13.6146 14.1233 13.614 14.1107 13.6167C14.0982 13.6194 14.0867 13.6253 14.0772 13.6337C14.0678 13.6421 14.0608 13.6528 14.057 13.6647C14.0532 13.6765 14.0527 13.6892 14.0555 13.7013V14.2592C14.0536 14.2738 14.0547 14.2887 14.0587 14.303C14.0627 14.3172 14.0697 14.3305 14.079 14.3422C14.2224 14.4745 14.8879 14.4418 15.0676 14.4418Z" stroke="#1E1E1E" stroke-width="0.186727" stroke-linecap="round" stroke-linejoin="round"/>
<path d="M18.5321 18.1081C18.2673 18.1469 18.2654 18.5094 18.5418 18.5126C18.7113 18.5145 18.8054 18.3492 18.7419 18.198C18.7091 18.1194 18.6221 18.0951 18.5321 18.1081Z" stroke="#1E1E1E" stroke-width="0.186727" stroke-linecap="round" stroke-linejoin="round"/>
<path d="M17.6883 18.1081C17.4235 18.1469 17.4217 18.5094 17.698 18.5126C17.8676 18.5145 17.9617 18.3492 17.8982 18.198C17.8661 18.1194 17.7783 18.0951 17.6883 18.1081Z" stroke="#1E1E1E" stroke-width="0.186727" stroke-linecap="round" stroke-linejoin="round"/>
<path d="M14.7772 18.1081C14.5124 18.1469 14.5105 18.5094 14.7869 18.5126C14.9564 18.5145 15.0506 18.3492 14.9871 18.198C14.9531 18.1194 14.8668 18.0951 14.7772 18.1081Z" stroke="#1E1E1E" stroke-width="0.186727" stroke-linecap="round" stroke-linejoin="round"/>
<path d="M13.9325 18.1081C13.6677 18.1469 13.6658 18.5094 13.9422 18.5126C14.1117 18.5145 14.2058 18.3492 14.1423 18.198C14.1091 18.1194 14.0221 18.0951 13.9325 18.1081Z" stroke="#1E1E1E" stroke-width="0.186727" stroke-linecap="round" stroke-linejoin="round"/>
<path d="M14.082 14.0584L15.7305 14.041C15.7438 14.0442 15.7577 14.0448 15.7712 14.0426C15.7848 14.0405 15.7977 14.0356 15.8092 14.0283C15.8208 14.021 15.8306 14.0114 15.8381 14.0003C15.8456 13.9891 15.8507 13.9766 15.853 13.9634L15.9276 13.7423C15.947 13.8902 15.9813 14.0359 16.03 14.1772C16.066 14.0251 16.1182 13.8771 16.1857 13.7354C16.2102 13.878 16.2675 14.0134 16.3534 14.1316C16.3971 13.9519 16.4597 13.777 16.5401 13.6096C16.5634 13.823 16.5979 14.0351 16.6436 14.245L16.7556 13.8496C17.3424 13.8775 17.9306 13.8568 18.5138 13.788" stroke="#1E1E1E" stroke-width="0.112036" stroke-linecap="round" stroke-linejoin="round"/>
<path d="M14.392 21.3009C14.9973 21.3009 15.4881 20.8246 15.4881 20.2371C15.4881 19.6495 14.9973 19.1732 14.392 19.1732C13.7866 19.1732 13.2959 19.6495 13.2959 20.2371C13.2959 20.8246 13.7866 21.3009 14.392 21.3009Z" stroke="#1E1E1E" stroke-width="0.186727" stroke-linecap="round" stroke-linejoin="round"/>
<path d="M18.1527 21.3009C18.7581 21.3009 19.2488 20.8246 19.2488 20.2371C19.2488 19.6495 18.7581 19.1732 18.1527 19.1732C17.5474 19.1732 17.0566 19.6495 17.0566 20.2371C17.0566 20.8246 17.5474 21.3009 18.1527 21.3009Z" stroke="#1E1E1E" stroke-width="0.186727" stroke-linecap="round" stroke-linejoin="round"/>
<path d="M18.1522 21.0312C18.6041 21.0312 18.9705 20.6756 18.9705 20.237C18.9705 19.7984 18.6041 19.4428 18.1522 19.4428C17.7003 19.4428 17.334 19.7984 17.334 20.237C17.334 20.6756 17.7003 21.0312 18.1522 21.0312Z" stroke="#1E1E1E" stroke-width="0.139299" stroke-linecap="round" stroke-linejoin="round"/>
<path d="M18.152 20.7072C18.4193 20.7072 18.636 20.4968 18.636 20.2374C18.636 19.978 18.4193 19.7676 18.152 19.7676C17.8847 19.7676 17.668 19.978 17.668 20.2374C17.668 20.4968 17.8847 20.7072 18.152 20.7072Z" stroke="#1E1E1E" stroke-width="0.139299" stroke-linecap="round" stroke-linejoin="round"/>
<path d="M18.1525 20.452C18.275 20.452 18.3743 20.3556 18.3743 20.2367C18.3743 20.1178 18.275 20.0214 18.1525 20.0214C18.03 20.0214 17.9307 20.1178 17.9307 20.2367C17.9307 20.3556 18.03 20.452 18.1525 20.452Z" fill="#1E1E1E"/>
<path d="M14.3925 21.0312C14.8444 21.0312 15.2107 20.6756 15.2107 20.237C15.2107 19.7984 14.8444 19.4428 14.3925 19.4428C13.9406 19.4428 13.5742 19.7984 13.5742 20.237C13.5742 20.6756 13.9406 21.0312 14.3925 21.0312Z" stroke="#1E1E1E" stroke-width="0.139299" stroke-linecap="round" stroke-linejoin="round"/>
<path d="M14.3922 20.7072C14.6595 20.7072 14.8762 20.4968 14.8762 20.2374C14.8762 19.978 14.6595 19.7676 14.3922 19.7676C14.1249 19.7676 13.9082 19.978 13.9082 20.2374C13.9082 20.4968 14.1249 20.7072 14.3922 20.7072Z" stroke="#1E1E1E" stroke-width="0.139299" stroke-linecap="round" stroke-linejoin="round"/>
<path d="M14.3927 20.452C14.5152 20.452 14.6146 20.3556 14.6146 20.2367C14.6146 20.1178 14.5152 20.0214 14.3927 20.0214C14.2702 20.0214 14.1709 20.1178 14.1709 20.2367C14.1709 20.3556 14.2702 20.452 14.3927 20.452Z" fill="#1E1E1E"/>
<path d="M16.2598 4.02588V5.83388" stroke="#1E1E1E" stroke-width="0.298764" stroke-linecap="round" stroke-linejoin="round"/>
<path d="M16.2468 3.95511C16.4025 3.95511 16.5288 3.83258 16.5288 3.68144C16.5288 3.5303 16.4025 3.40778 16.2468 3.40778C16.0911 3.40778 15.9648 3.5303 15.9648 3.68144C15.9648 3.83258 16.0911 3.95511 16.2468 3.95511Z" stroke="#1E1E1E" stroke-width="0.186727" stroke-linecap="round" stroke-linejoin="round"/>
<path d="M9.6875 26.8616C10.04 26.8616 10.4101 26.8862 10.7332 26.8072C10.8026 26.7902 10.8803 26.7561 10.9572 26.7521C11.0342 26.7481 11.1066 26.7521 11.1813 26.7521C11.3337 26.7521 11.5032 26.7717 11.6481 26.734C11.805 26.693 11.9775 26.75 12.1336 26.7173C12.2083 26.7017 12.2509 26.6793 12.3375 26.6811C12.4122 26.6811 12.4869 26.6811 12.5616 26.6811C12.6426 26.6811 12.7233 26.6811 12.8044 26.6811C12.8854 26.6811 12.9485 26.7104 13.0284 26.7173C13.1108 26.7214 13.1927 26.7327 13.273 26.751C13.3249 26.7655 13.3668 26.8109 13.4187 26.8257C13.5875 26.8736 13.7716 26.8699 13.9415 26.9152C14.0885 26.953 14.2433 26.9518 14.3897 26.9116C14.6511 26.8369 14.902 26.8754 15.1739 26.8616C15.2538 26.8572 15.3151 26.8253 15.398 26.8253C15.4809 26.8253 15.5724 26.8253 15.6594 26.8253H16.2024C16.36 26.8253 16.5303 26.8065 16.6879 26.8253C16.7723 26.8348 16.8474 26.8855 16.9307 26.9011C17.0371 26.921 17.1659 26.8993 17.275 26.8993C17.4132 26.8993 17.5543 26.9084 17.6917 26.8993C17.756 26.8957 17.8154 26.8725 17.8785 26.863C17.9532 26.854 18.0279 26.8699 18.1025 26.863C18.147 26.858 18.1772 26.8373 18.2206 26.8268C18.2706 26.8166 18.321 26.8297 18.3699 26.8206C18.5063 26.7964 18.6396 26.7815 18.7766 26.751C19.0205 26.697 19.2737 26.6706 19.5123 26.614C19.6292 26.5861 19.7738 26.6061 19.8925 26.6061H20.2492C20.3806 26.6061 20.5349 26.5836 20.6626 26.6144C20.7746 26.6412 20.8833 26.6869 20.9987 26.7104C21.1596 26.7449 21.3288 26.7829 21.4943 26.7884C21.6829 26.7927 21.8726 26.7793 22.0612 26.7862C22.2315 26.7924 22.4029 26.8482 22.5683 26.8862C22.6583 26.9069 22.7341 26.9493 22.8204 26.9794C22.8953 27.0027 22.9743 27.0113 23.0527 27.0048" stroke="#1E1E1E" stroke-width="0.186727" stroke-linecap="round" stroke-linejoin="round"/>
<path d="M19.9252 11.6462C20.0025 11.6462 20.0652 11.5853 20.0652 11.5103C20.0652 11.4352 20.0025 11.3743 19.9252 11.3743C19.8479 11.3743 19.7852 11.4352 19.7852 11.5103C19.7852 11.5853 19.8479 11.6462 19.9252 11.6462Z" fill="white"/>
<path d="M13.0951 11.6462C13.1725 11.6462 13.2352 11.5853 13.2352 11.5103C13.2352 11.4352 13.1725 11.3743 13.0951 11.3743C13.0178 11.3743 12.9551 11.4352 12.9551 11.5103C12.9551 11.5853 13.0178 11.6462 13.0951 11.6462Z" fill="white"/>
</g>
<defs>
<clipPath id="clip0">
<rect width="22.5189" height="24.3877" fill="white" transform="translate(5 2.8288)"/>
</clipPath>
</defs>
</svg>
