<svg width="32" height="32" viewBox="0 0 32 32" fill="none" xmlns="http://www.w3.org/2000/svg">
<g clip-path="url(#clip0)">
<path d="M15.9998 14.2694C16.9559 14.2694 17.7309 15.0441 17.7309 15.9999C17.7309 16.9559 16.9559 17.7309 15.9998 17.7309C15.0441 17.7309 14.2691 16.9557 14.2691 15.9999C14.2691 15.0441 15.0441 14.2694 15.9998 14.2694V14.2694ZM10.1026 15.9999C10.1026 12.7429 12.7429 10.1027 15.9998 10.1027C19.2573 10.1027 21.8973 12.7429 21.8973 15.9999C21.8973 16.2155 21.8859 16.4282 21.8633 16.6374C21.8185 17.2123 22.2404 17.6512 22.8116 17.6512C23.7811 17.6512 23.8844 16.4012 23.8844 15.9999C23.8844 11.6452 20.3545 8.11539 15.9998 8.11539C11.6452 8.11539 8.11539 11.6453 8.11539 15.9999C8.11539 20.3543 11.6452 23.8843 15.9998 23.8843C18.3124 23.8843 20.3925 22.8892 21.8348 21.3034L23.4557 22.6645C21.6248 24.7112 18.9627 26.0003 15.9998 26.0003C10.477 26.0003 6 21.5228 6 15.9999C6 10.477 10.477 6 15.9998 6C21.523 6 26 10.477 26 16C26 18.2199 24.943 20.0227 22.8198 20.0227C21.8855 20.0227 21.3175 19.5945 21.0073 19.1167C19.9659 20.7861 18.113 21.8977 15.9998 21.8977C12.7428 21.8977 10.1026 19.257 10.1026 16V15.9999ZM15.9998 12.2179C13.9113 12.2179 12.2178 13.9111 12.2178 15.9999C12.2178 18.0888 13.9113 19.7821 15.9998 19.7821C18.0886 19.7821 19.7821 18.0888 19.7821 15.9999C19.7821 13.9111 18.0886 12.2179 15.9998 12.2179Z" fill="#AF252A"/>
</g>
<defs>
<clipPath id="clip0">
<rect width="20" height="20" fill="white" transform="translate(6 6)"/>
</clipPath>
</defs>
</svg>
