<svg width="32" height="32" viewBox="0 0 32 32" fill="none" xmlns="http://www.w3.org/2000/svg">
<g clip-path="url(#clip0)">
<path d="M26.9187 17.968C26.7927 17.5866 26.4629 17.321 26.0363 17.2573C25.8352 17.2273 25.6048 17.2401 25.3323 17.2962C24.8571 17.3943 24.5046 17.4316 24.2474 17.4388C25.2184 15.7994 26.0079 13.9299 26.4625 12.1701C27.1975 9.32453 26.8047 8.02819 26.3457 7.44183C25.1311 5.8898 23.359 5.05604 21.2211 5.03052C20.0806 5.01658 19.0794 5.24176 18.5571 5.40368C18.0708 5.31788 17.548 5.26997 16.9994 5.26111C15.9709 5.24471 15.0623 5.4689 14.2858 5.92967C13.856 5.78431 13.1661 5.5794 12.3694 5.44864C10.4957 5.14102 8.98548 5.38072 7.88084 6.16108C6.54324 7.10592 5.92317 8.74752 6.03785 11.0403C6.07427 11.7682 6.48147 13.9831 7.12263 16.0836C7.49111 17.2909 7.88404 18.2935 8.29051 19.0638C8.86694 20.156 9.48373 20.7992 10.1762 21.0302C10.5642 21.1595 11.2694 21.2501 12.011 20.6324C12.105 20.7462 12.2305 20.8594 12.3969 20.9644C12.6083 21.0977 12.8668 21.2067 13.1249 21.2712C14.0553 21.5038 14.9267 21.4456 15.6701 21.1196C15.6747 21.2519 15.6782 21.3782 15.6812 21.4873C15.6861 21.6642 15.691 21.8377 15.6975 22C15.7416 23.0971 15.8162 23.9501 16.0374 24.547C16.0495 24.5798 16.0658 24.6298 16.0831 24.6829C16.1934 25.0207 16.3779 25.5862 16.8473 26.0291C17.3333 26.4879 17.9212 26.6286 18.4597 26.6286C18.7297 26.6286 18.9874 26.5932 19.2134 26.5448C20.0189 26.3721 20.9338 26.1091 21.5956 25.1667C22.2214 24.2759 22.5256 22.9341 22.5806 20.8199C22.5877 20.7601 22.5943 20.703 22.6006 20.6486L22.6137 20.5369L22.7611 20.5498L22.7991 20.5524C23.6196 20.5898 24.6228 20.4158 25.239 20.1296C25.7258 19.9037 27.286 19.08 26.9187 17.968" fill="black"/>
<path d="M25.5154 18.1842C23.0758 18.6875 22.9081 17.8615 22.9081 17.8615C25.4839 14.0395 26.5607 9.18788 25.6315 8.00048C23.0964 4.76148 18.7082 6.29333 18.6349 6.33303L18.6114 6.3373C18.1293 6.23722 17.59 6.17766 16.9837 6.16774C15.8799 6.14969 15.0425 6.45714 14.4071 6.93899C14.4071 6.93899 6.57885 3.71402 6.94298 10.9949C7.02042 12.5439 9.16308 22.715 11.7187 19.6428C12.6528 18.5194 13.5554 17.5696 13.5554 17.5696C14.0036 17.8674 14.5402 18.0193 15.1028 17.9647L15.1465 17.9277C15.1329 18.0671 15.1391 18.2035 15.164 18.365C14.5056 19.1006 14.6991 19.2297 13.383 19.5007C12.0512 19.7752 12.8336 20.2637 13.3444 20.3915C13.9636 20.5463 15.3962 20.7657 16.3642 19.4106L16.3256 19.5652C16.5835 19.7719 16.7647 20.9092 16.7343 21.9402C16.704 22.9712 16.6837 23.679 16.8869 24.2319C17.0903 24.7848 17.2928 26.0288 19.023 25.6581C20.4686 25.3483 21.2178 24.5454 21.3221 23.2062C21.396 22.2541 21.5634 22.3949 21.5739 21.5437L21.7082 21.1407C21.863 19.8501 21.7328 19.4337 22.6234 19.6274L22.84 19.6465C23.4954 19.6762 24.3535 19.541 24.8571 19.3069C25.9413 18.8037 26.5845 17.9635 25.5153 18.1842H25.5154" fill="#336791"/>
<path d="M14.8658 11.6876C14.646 11.657 14.4469 11.6853 14.3462 11.7616C14.2896 11.8045 14.272 11.8542 14.2673 11.8884C14.2546 11.9791 14.3181 12.0793 14.3572 12.131C14.4676 12.2773 14.6289 12.3779 14.7885 12.4C14.8116 12.4033 14.8347 12.4048 14.8576 12.4048C15.1237 12.4048 15.3658 12.1975 15.3871 12.0445C15.4138 11.8529 15.1356 11.7252 14.8658 11.6877V11.6876ZM22.1489 11.6937C22.1279 11.5435 21.8606 11.5007 21.607 11.5359C21.3537 11.5712 21.1081 11.6855 21.1286 11.8361C21.145 11.9531 21.3564 12.153 21.6066 12.153C21.6278 12.153 21.6491 12.1516 21.6706 12.1485C21.8376 12.1254 21.9601 12.0193 22.0184 11.9582C22.107 11.865 22.1583 11.7612 22.1489 11.6937" fill="white"/>
<path d="M26.3274 18.127C26.2344 17.8457 25.935 17.7553 25.4376 17.858C23.9606 18.1628 23.4317 17.9516 23.258 17.8238C24.406 16.0748 25.3504 13.9607 25.8599 11.9883C26.1013 11.054 26.2346 10.1862 26.2455 9.47896C26.2576 8.7027 26.1253 8.13226 25.8526 7.78379C24.7533 6.379 23.1397 5.62546 21.1865 5.60479C19.8438 5.5897 18.7093 5.93333 18.4894 6.02996C18.0262 5.91479 17.5213 5.84408 16.9716 5.83505C15.9636 5.81873 15.0923 6.06006 14.3709 6.55201C14.0575 6.43536 13.2477 6.15735 12.2574 5.9978C10.5452 5.72218 9.18463 5.93103 8.21371 6.61886C7.05518 7.43967 6.52034 8.90688 6.62395 10.9796C6.65881 11.677 7.05617 13.8223 7.68322 15.8767C8.50861 18.5808 9.40587 20.1116 10.3499 20.4265C10.4604 20.4634 10.5878 20.4891 10.7283 20.4891C11.0727 20.4891 11.4949 20.3339 11.9342 19.8058C12.4699 19.163 13.0242 18.5359 13.5962 17.9251C13.9673 18.1243 14.375 18.2356 14.792 18.2467C14.7928 18.2576 14.7938 18.2685 14.7948 18.2794C14.7231 18.3649 14.6528 18.4518 14.584 18.5398C14.2951 18.9066 14.235 18.9829 13.305 19.1744C13.0404 19.229 12.3378 19.3738 12.3275 19.8663C12.3163 20.4045 13.1581 20.6305 13.254 20.6544C13.5882 20.7381 13.9101 20.7793 14.2172 20.7793C14.9639 20.7793 15.6211 20.5339 16.1462 20.059C16.1301 21.9774 16.21 23.8677 16.4404 24.4437C16.6291 24.9152 17.0899 26.0675 18.5456 26.0674C18.7592 26.0674 18.9943 26.0425 19.253 25.9871C20.7723 25.6614 21.4321 24.9899 21.6873 23.5095C21.8238 22.7183 22.0582 20.8291 22.1685 19.8156C22.4011 19.8882 22.7006 19.9215 23.0244 19.9214C23.6997 19.9214 24.4789 19.7779 24.9675 19.5511C25.5165 19.2961 26.5071 18.6706 26.3274 18.127V18.127ZM22.7094 11.2791C22.7044 11.5782 22.6632 11.8498 22.6195 12.1333C22.5725 12.4382 22.524 12.7535 22.5118 13.1362C22.4997 13.5086 22.5462 13.8958 22.5912 14.2702C22.6821 15.0266 22.7753 15.8052 22.4143 16.5735C22.3543 16.4673 22.3009 16.3574 22.2543 16.2447C22.2095 16.1359 22.112 15.9612 21.9771 15.7193C21.4522 14.7779 20.2229 12.5734 20.8522 11.6739C21.0396 11.4061 21.5153 11.1308 22.7094 11.2791V11.2791ZM21.262 6.21059C23.0121 6.24923 24.3964 6.90392 25.3765 8.15637C26.1283 9.11704 25.3005 13.4882 22.9041 17.2593C22.88 17.2287 22.8558 17.1981 22.8314 17.1677L22.8011 17.1298C23.4203 16.1071 23.2993 15.0952 23.1915 14.1981C23.1472 13.83 23.1053 13.4823 23.116 13.1556C23.127 12.8094 23.1728 12.5125 23.2171 12.2254C23.2714 11.8716 23.3268 11.5055 23.3116 11.0739C23.323 11.0286 23.3276 10.9751 23.3216 10.9116C23.2826 10.4978 22.8101 9.2592 21.8471 8.13816C21.3203 7.52498 20.552 6.83879 19.5031 6.37597C19.9543 6.28245 20.5712 6.19525 21.262 6.21059V6.21059ZM11.4693 19.4193C10.9853 20.0012 10.6511 19.8896 10.5412 19.853C9.82505 19.6142 8.99407 18.1005 8.26145 15.7003C7.62752 13.6234 7.25706 11.535 7.2277 10.9494C7.13516 9.09727 7.58412 7.80651 8.56218 7.11285C10.1539 5.9841 12.7709 6.65971 13.8224 7.00236C13.8073 7.01729 13.7916 7.03123 13.7767 7.04641C12.0511 8.78908 12.092 11.7665 12.0963 11.9485C12.0961 12.0187 12.102 12.1182 12.11 12.2549C12.1397 12.7557 12.195 13.6877 12.0474 14.7432C11.9102 15.7241 12.2126 16.6841 12.8768 17.3772C12.9449 17.4482 13.0166 17.5157 13.0915 17.5796C12.7958 17.8963 12.1533 18.5965 11.4693 19.4193V19.4193ZM13.3133 16.9589C12.7779 16.4003 12.5348 15.6233 12.6461 14.8269C12.802 13.7119 12.7445 12.7409 12.7135 12.2191C12.7092 12.1461 12.7053 12.0821 12.7031 12.0317C12.9552 11.8082 14.1234 11.1823 14.9565 11.3731C15.3366 11.4602 15.5683 11.7191 15.6646 12.1643C16.163 14.4697 15.7306 15.4305 15.3831 16.2027C15.3115 16.3617 15.2438 16.5121 15.186 16.6676L15.1413 16.7879C15.0279 17.0919 14.9224 17.3746 14.857 17.643C14.2879 17.6413 13.7343 17.3982 13.3133 16.9588V16.9589ZM13.4006 20.0679C13.2344 20.0264 13.085 19.9543 12.9973 19.8945C13.0705 19.86 13.2009 19.8131 13.427 19.7665C14.521 19.5413 14.69 19.3823 15.059 18.9139C15.1435 18.8064 15.2394 18.6847 15.3723 18.5364L15.3724 18.5362C15.5702 18.3147 15.6607 18.3523 15.8247 18.4204C15.9577 18.4753 16.0872 18.642 16.1397 18.8254C16.1646 18.9121 16.1925 19.0765 16.1012 19.2044C15.3304 20.2836 14.2072 20.2698 13.4006 20.0679V20.0679ZM19.1263 25.396C17.7879 25.6828 17.314 24.9998 17.0017 24.2192C16.8002 23.7152 16.7011 21.4424 16.7714 18.9325C16.7723 18.8991 16.7675 18.8669 16.7583 18.8365C16.7501 18.7766 16.7376 18.7173 16.7209 18.6592C16.6164 18.294 16.3617 17.9885 16.0561 17.8618C15.9347 17.8115 15.7119 17.7192 15.4442 17.7877C15.5013 17.5525 15.6003 17.2868 15.7077 16.9991L15.7527 16.8781C15.8034 16.7417 15.8671 16.6003 15.9343 16.4507C16.298 15.6429 16.796 14.5364 16.2555 12.0366C16.053 11.1003 15.3769 10.6431 14.352 10.7493C13.7376 10.8129 13.1755 11.0608 12.8951 11.2029C12.8348 11.2334 12.7797 11.263 12.7281 11.2917C12.8064 10.3483 13.102 8.58531 14.208 7.46985C14.9043 6.76767 15.8317 6.42084 16.9616 6.43954C19.1879 6.47596 20.6156 7.61849 21.4213 8.57063C22.1156 9.39103 22.4916 10.2175 22.6416 10.6632C21.5133 10.5485 20.7459 10.7712 20.3569 11.3274C19.5106 12.5372 20.8199 14.8852 21.4491 16.0137C21.5645 16.2205 21.6641 16.3993 21.6955 16.4752C21.9004 16.9719 22.1657 17.3034 22.3593 17.5454C22.4187 17.6196 22.4763 17.6915 22.5201 17.7544C22.1784 17.8529 21.5645 18.0805 21.6205 19.2184C21.5754 19.7893 21.2545 22.4624 21.0916 23.4068C20.8764 24.6545 20.4173 25.1192 19.1263 25.3961V25.396ZM24.713 19.0028C24.3635 19.165 23.7787 19.2866 23.2232 19.3128C22.6096 19.3415 22.2972 19.244 22.2237 19.1841C22.1893 18.475 22.4532 18.4009 22.7325 18.3225C22.7764 18.3102 22.8192 18.2981 22.8606 18.2837C22.8862 18.3046 22.9144 18.3254 22.9452 18.3457C23.4384 18.6712 24.318 18.7063 25.5599 18.45L25.5735 18.4473C25.406 18.6039 25.1194 18.814 24.713 19.0028Z" fill="white"/>
</g>
<defs>
<clipPath id="clip0">
<rect width="21" height="21.6584" fill="white" transform="translate(6 5)"/>
</clipPath>
</defs>
</svg>
