<svg fill="none" xmlns="http://www.w3.org/2000/svg" viewBox="0 0 90 80"><g clip-path="url(#clip0)"><path d="M78.084 56.652c-3.781 1.966-23.371 10.002-27.542 12.17-4.17 2.17-6.487 2.15-9.782.578-3.294-1.571-24.14-9.972-27.896-11.763-1.877-.894-2.864-1.65-2.864-2.363v-7.146s27.14-5.894 31.522-7.462c4.38-1.568 5.901-1.625 9.63-.262 3.728 1.363 26.023 5.375 29.709 6.722l-.002 7.044c0 .707-.85 1.481-2.775 2.482z" fill="#912626"/><path d="M78.083 49.549c-3.781 1.965-23.37 10-27.541 12.17-4.17 2.17-6.487 2.148-9.782.577-3.294-1.57-24.14-9.972-27.895-11.762-3.756-1.79-3.834-3.023-.146-4.464 3.69-1.441 24.42-9.556 28.803-11.124 4.381-1.568 5.9-1.625 9.63-.262 3.728 1.363 23.2 9.095 26.885 10.441 3.686 1.348 3.827 2.458.046 4.424z" fill="#C6302B"/><path d="M78.084 45.09c-3.781 1.967-23.371 10.002-27.542 12.172-4.17 2.169-6.487 2.148-9.782.576-3.294-1.57-24.14-9.972-27.896-11.762C10.987 45.18 10 44.426 10 43.713v-7.146s27.14-5.894 31.522-7.462c4.38-1.569 5.901-1.625 9.63-.263 3.729 1.363 26.024 5.375 29.709 6.722l-.002 7.045c0 .706-.85 1.48-2.775 2.481z" fill="#912626"/><path d="M78.083 37.986c-3.781 1.966-23.37 10.001-27.541 12.17-4.17 2.17-6.487 2.148-9.782.577-3.294-1.57-24.14-9.972-27.895-11.762-3.756-1.79-3.834-3.023-.146-4.464 3.69-1.44 24.421-9.555 28.803-11.123 4.381-1.568 5.9-1.625 9.63-.262 3.728 1.362 23.2 9.094 26.885 10.44 3.686 1.348 3.827 2.458.046 4.424z" fill="#C6302B"/><path d="M78.084 33.1C74.303 35.066 54.713 43.1 50.542 45.27c-4.17 2.169-6.487 2.148-9.782.576-3.294-1.57-24.14-9.972-27.896-11.762C10.987 33.19 10 32.435 10 31.722v-7.146s27.14-5.894 31.522-7.462c4.38-1.568 5.901-1.624 9.63-.262 3.729 1.363 26.024 5.375 29.709 6.721l-.002 7.045c0 .706-.85 1.48-2.775 2.482z" fill="#912626"/><path d="M78.083 25.996c-3.781 1.966-23.37 10.002-27.541 12.17-4.17 2.17-6.487 2.148-9.782.578-3.294-1.571-24.14-9.972-27.895-11.763-3.756-1.79-3.834-3.022-.146-4.464 3.69-1.44 24.421-9.554 28.803-11.123 4.381-1.568 5.9-1.624 9.63-.261 3.728 1.362 23.2 9.094 26.885 10.44 3.686 1.347 3.827 2.457.046 4.423z" fill="#C6302B"/><path d="M54.09 19.045l-6.093.631-1.364 3.274-2.203-3.653-7.034-.63 5.249-1.89-1.575-2.898 4.914 1.917 4.633-1.513-1.252 2.998 4.724 1.764zm-7.82 15.883L34.9 30.224l16.292-2.495-4.922 7.2zM30.506 20.865c4.81 0 8.708 1.508 8.708 3.367 0 1.86-3.899 3.368-8.708 3.368-4.81 0-8.708-1.508-8.708-3.368 0-1.86 3.898-3.367 8.708-3.367z" fill="#fff"/><path d="M61.29 19.94l9.642 3.802-9.634 3.798-.009-7.6" fill="#621B1C"/><path d="M50.622 24.15l10.667-4.21.009 7.6-1.046.408-9.63-3.798z" fill="#9A2928"/></g><defs><clipPath id="clip0"><path fill="#fff" transform="translate(10 10)" d="M0 0h70.875v60.75H0z"/></clipPath></defs></svg>