<svg width="32" height="32" viewBox="0 0 32 32" fill="none" xmlns="http://www.w3.org/2000/svg">
<g clip-path="url(#clip0)">
<path d="M26.8324 20.6471C25.6197 21.2755 19.338 23.843 18.0006 24.5361C16.6633 25.2293 15.9204 25.2226 14.8638 24.7205C13.8074 24.2185 7.12253 21.5342 5.91831 20.962C5.31652 20.6761 5 20.4347 5 20.2067V17.9235C5 17.9235 13.703 16.0401 15.1079 15.539C16.5128 15.0379 17.0003 15.0198 18.1959 15.4552C19.3917 15.8907 26.541 17.173 27.7226 17.6032L27.7221 19.8541C27.7223 20.0798 27.4496 20.3274 26.8324 20.6471" fill="#912626"/>
<path d="M26.8319 18.3782C25.6194 19.0063 19.3378 21.5739 18.0004 22.2669C16.6632 22.9602 15.9203 22.9534 14.8638 22.4513C13.8073 21.9496 7.12268 19.2649 5.91856 18.693C4.71444 18.1208 4.68923 17.727 5.87205 17.2666C7.05487 16.806 13.7028 14.2132 15.108 13.7121C16.5129 13.2112 17.0003 13.193 18.1959 13.6285C19.3916 14.0638 25.6357 16.5345 26.8172 16.9647C27.9991 17.3953 28.0445 17.75 26.8319 18.3782" fill="#C6302B"/>
<path d="M26.8324 16.9531C25.6197 17.5815 19.338 20.149 18.0006 20.8423C16.6633 21.5352 15.9204 21.5285 14.8638 21.0265C13.8073 20.5247 7.12253 17.8401 5.91831 17.2679C5.31652 16.982 5 16.741 5 16.5129V14.2295C5 14.2295 13.703 12.3462 15.1079 11.8451C16.5128 11.344 17.0003 11.3258 18.1959 11.7613C19.3918 12.1967 26.5411 13.4787 27.7226 13.909L27.7221 16.1601C27.7223 16.3858 27.4496 16.6333 26.8324 16.9531Z" fill="#912626"/>
<path d="M26.8319 14.6833C25.6194 15.3116 19.3378 17.879 18.0004 18.5723C16.6632 19.2653 15.9203 19.2585 14.8638 18.7564C13.8073 18.2547 7.12268 15.5701 5.91856 14.9981C4.71444 14.4261 4.68923 14.0322 5.87205 13.5717C7.05487 13.1113 13.7029 10.5184 15.108 10.0174C16.5129 9.51636 17.0003 9.49819 18.1959 9.93363C19.3916 10.369 25.6357 12.8395 26.8172 13.2698C27.9991 13.7004 28.0445 14.0551 26.8319 14.6833" fill="#C6302B"/>
<path d="M26.8324 13.1219C25.6197 13.7502 19.338 16.3178 18.0006 17.0112C16.6633 17.7042 15.9204 17.6974 14.8638 17.1953C13.8073 16.6935 7.12253 14.0089 5.91831 13.4369C5.31652 13.1508 5 12.9096 5 12.6818V10.3983C5 10.3983 13.703 8.51508 15.1079 8.01408C16.5128 7.51291 17.0003 7.49491 18.1959 7.93026C19.3918 8.3657 26.5411 9.64767 27.7226 10.078L27.7221 12.329C27.7223 12.5545 27.4496 12.8021 26.8324 13.1219Z" fill="#912626"/>
<path d="M26.8319 10.8522C25.6193 11.4805 19.3377 14.0481 18.0004 14.7411C16.6631 15.4341 15.9202 15.4273 14.8638 14.9255C13.8074 14.4235 7.12264 11.739 5.91861 11.167C4.71439 10.595 4.68927 10.2011 5.87201 9.74056C7.05483 9.28015 13.7029 6.68753 15.108 6.18635C16.5129 5.68527 17.0002 5.66727 18.1958 6.10271C19.3915 6.53815 25.6356 9.00865 26.8171 9.43897C27.9991 9.8692 28.0444 10.224 26.8319 10.8522" fill="#C6302B"/>
<path d="M19.1381 8.63141L17.1845 8.83303L16.7471 9.87914L16.0408 8.71179L13.7849 8.51026L15.4682 7.90682L14.9631 6.98053L16.5391 7.59323L18.0248 7.10971L17.6232 8.0675L19.1381 8.63141V8.63141ZM16.6305 13.7065L12.9845 12.2033L18.2089 11.4061L16.6305 13.7065V13.7065ZM11.5756 9.21288C13.1178 9.21288 14.368 9.69464 14.368 10.2888C14.368 10.8832 13.1178 11.3648 11.5756 11.3648C10.0334 11.3648 8.7832 10.8831 8.7832 10.2888C8.7832 9.69464 10.0334 9.21288 11.5756 9.21288Z" fill="white"/>
<path d="M21.4473 8.91684L24.5393 10.1315L21.4499 11.345L21.4473 8.91675" fill="#621B1C"/>
<path d="M18.0264 10.2619L21.4472 8.91675L21.4499 11.3449L21.1144 11.4753L18.0264 10.2619Z" fill="#9A2928"/>
</g>
<defs>
<clipPath id="clip0">
<rect width="22.7273" height="19.4117" fill="white" transform="translate(5 5.7406)"/>
</clipPath>
</defs>
</svg>
