<svg width="32" height="32" viewBox="0 0 32 32" fill="none" xmlns="http://www.w3.org/2000/svg">
<path d="M2.24887 15.0941C2.24887 14.7557 2.53331 14.6255 3.0045 14.6255C3.68 14.6255 4.53331 14.8251 5.20888 15.1809V13.1415C4.47113 12.8551 3.74225 12.7423 3.0045 12.7423C1.2 12.7423 0 13.6622 0 15.1983C0 17.5935 3.37775 17.2117 3.37775 18.2444C3.37775 18.6435 3.02225 18.7738 2.52444 18.7738C1.78669 18.7738 0.844437 18.4787 0.09775 18.0795V20.1449C0.924438 20.4921 1.76 20.6395 2.52444 20.6395C4.37331 20.6395 5.64444 19.7457 5.64444 18.1923C5.63556 15.6062 2.24887 16.0661 2.24887 15.0941V15.0941ZM8.25775 11.0067L6.08887 11.4579L6.08 18.4092C6.08 19.6937 7.06669 20.6395 8.38225 20.6395C9.11112 20.6395 9.64444 20.5094 9.93775 20.3532V18.5915C9.65337 18.7043 8.24887 19.1035 8.24887 17.8191V14.7383H9.93775V12.8899H8.24887L8.25775 11.0067V11.0067ZM12.7022 13.532L12.56 12.8899H10.64V20.4833H12.8623V15.3372C13.3866 14.6689 14.2756 14.7904 14.5511 14.8859V12.8899C14.2667 12.7857 13.2267 12.5948 12.7022 13.532V13.532ZM15.0933 12.8899H17.3244V20.4833H15.0933V12.8899V12.8899ZM15.0933 12.2303L17.3244 11.7617V10L15.0933 10.46V12.2302V12.2303ZM21.9644 12.7423C21.0933 12.7423 20.5333 13.1415 20.2222 13.4193L20.1066 12.8812H18.1511V23L20.3733 22.5401L20.3822 20.0841C20.7022 20.3098 21.1733 20.6309 21.9556 20.6309C23.5467 20.6309 24.9956 19.3812 24.9956 16.6302C24.9867 14.1135 23.52 12.7423 21.9644 12.7423V12.7423ZM21.4311 18.7216C20.9067 18.7216 20.5955 18.5394 20.3822 18.3138L20.3733 15.0941C20.6044 14.8425 20.9244 14.6689 21.4311 14.6689C22.24 14.6689 22.8 15.5541 22.8 16.6909C22.8 17.8538 22.2489 18.7216 21.4311 18.7216V18.7216ZM32 16.717C32 14.4953 30.8977 12.7423 28.7911 12.7423C26.6755 12.7423 25.3955 14.4954 25.3955 16.6997C25.3955 19.3118 26.9067 20.6309 29.0755 20.6309C30.1333 20.6309 30.9333 20.3966 31.5378 20.0668V18.3311C30.9334 18.6262 30.24 18.8085 29.36 18.8085C28.4978 18.8085 27.7333 18.5134 27.6356 17.4894H31.9823C31.9823 17.3765 32 16.9252 32 16.717ZM27.6089 15.8926C27.6089 14.9119 28.2222 14.504 28.7822 14.504C29.3244 14.504 29.9023 14.9119 29.9023 15.8926H27.6089Z" fill="#6772E5"/>
</svg>
